<svg id="Layer_1" data-name="Layer 1" xmlns="http://www.w3.org/2000/svg" viewBox="0 0 500 500"><path d="M416.952,87.413c26.829,55.6,16.236,126.251-48.343,178.855-57.933,47.19-147.752,61.167-212.794,33.96-64.54-27-101.208-93.105-86.952-157.173C83.307,78.143,149.145,19.183,225.4,4.207,316.414-13.667,388.065,27.548,416.952,87.413Z" style="fill:#e2f3f0"/><path d="M53.539,195.893c-3.5,3.1-3.516,7.445-3.189,12.148a94.706,94.706,0,0,0,7.213,30.23c2.5,5.915,8.237,16.745,13.436,20.868s10.208,1.264,17.009-.878a12.217,12.217,0,0,0,6.231-4.1c2.532-3.445,1.906-7.888.975-11.8-3.462-14.525-9.664-28.225-15.831-41.829-1.629-3.593-3.512-7.444-7.3-9.18-5.357-2.458-11.5.36-16.373,3.029A11.836,11.836,0,0,0,53.539,195.893Z" style="fill:#aeddd5"/><path d="M411.779,57.834c5.05-.073,8.238,3.218,11.415,7.02a96.5,96.5,0,0,1,16.355,28.008c2.332,6.232,5.663,18.441,4.51,25.147s-7.253,7.928-14.25,10.917a13.786,13.786,0,0,1-7.948,1.105c-4.518-.907-7.251-4.711-9.353-8.316C404.7,108.327,399.667,93.7,394.671,79.171c-1.319-3.839-2.626-8.047-.9-11.966,2.451-5.553,9.36-7.659,15.177-9.009A13.271,13.271,0,0,1,411.779,57.834Z" style="fill:#aeddd5"/><path d="M310.993,62.567c10.924-8.659,27.865-14.1,42.521-10.484,10.029,2.474,17.606,8.7,23.373,15.416a70.889,70.889,0,0,1,17.342,40.873c1.006,13.556-1.861,28.4,6.112,41.572,3.038,5.016,7.576,9.6,9.24,15.147,3.093,10.31-5.393,21.379-17.234,25.275-11.976,3.942-25.836,1.535-36.977-3.86-11.025-5.339-19.7-13.248-27.893-21.034C293.854,133.511,270.806,94.419,310.993,62.567Z" style="fill:#cccccb;fill-rule:evenodd"/><path d="M313.845,95.41c8.511-5.611,21.119-9.339,31.411-7.384a27.738,27.738,0,0,1,15.7,9.128,35.406,35.406,0,0,1,9.467,25.1c-.279,8.419-3.444,17.721,1.326,25.758,1.816,3.062,4.746,5.824,5.535,9.244,1.465,6.357-5.469,13.419-14.289,16.083-8.92,2.695-18.728,1.476-26.355-1.659-7.548-3.1-13.214-7.851-18.539-12.533C296.242,139.923,282.531,116.049,313.845,95.41Z" style="fill:#f0d8d8;fill-rule:evenodd"/><path d="M334.335,114.388a31.331,31.331,0,0,0,1.712,7.263c.168.461,1.317.311,1.122-.225a30.369,30.369,0,0,1-1.666-7.059c-.059-.523-1.225-.487-1.168.021Z" style="fill:#e6bec1"/><path d="M349.881,119.382q.566,3.163,1.129,6.328c.082.459,1.108.417,1.03-.018l-1.128-6.328c-.082-.46-1.108-.417-1.031.018Z" style="fill:#e6bec1"/><path d="M348.722,139.679a48.659,48.659,0,0,1,1.43,6.648c.065.456,1.081.419,1.019-.018a50,50,0,0,0-1.47-6.826c-.118-.407-1.119-.287-.979.2Z" style="fill:#e6bec1"/><path d="M355.4,139.909l1.1,8.157c.07.522,1.235.482,1.167-.021l-1.1-8.157c-.07-.522-1.235-.482-1.167.021Z" style="fill:#e6bec1"/><path d="M342.089,129.889a57.241,57.241,0,0,0,3.8,7.683c.251.424,1.4.243,1.122-.224a57.134,57.134,0,0,1-3.8-7.684c-.185-.456-1.335-.3-1.122.225Z" style="fill:#e6bec1"/><path d="M354.945,127.865q.078,3,.406,5.982c.051.463,1.082.431,1.033-.018q-.328-2.983-.406-5.982c-.012-.46-1.045-.443-1.033.018Z" style="fill:#e6bec1"/><path d="M353.963,153.715a43.543,43.543,0,0,1,.363,6.684c-.011.515,1.156.5,1.168-.02a43.67,43.67,0,0,0-.364-6.684c-.069-.523-1.233-.484-1.167.02Z" style="fill:#e6bec1"/><path d="M357.675,151.178q-.1,3.479-.191,6.959c-.015.515,1.152.5,1.167-.02q.094-3.48.191-6.96c.014-.515-1.153-.505-1.167.021Z" style="fill:#e6bec1"/><path d="M347.482,127.677q.828,2.228,1.657,4.453c.171.461,1.32.31,1.122-.224q-.829-2.226-1.657-4.453c-.171-.46-1.32-.309-1.122.224Z" style="fill:#e6bec1"/><path d="M339.63,121.779a30.878,30.878,0,0,0,1.04,4.624c.143.465,1.29.325,1.122-.225a29.424,29.424,0,0,1-.995-4.42c-.075-.522-1.239-.48-1.167.021Z" style="fill:#e6bec1"/><path d="M344.747,114.28l1.083,4.7c.107.468,1.251.339,1.122-.225l-1.083-4.7c-.108-.468-1.252-.339-1.122.225Z" style="fill:#e6bec1"/><path d="M359.442,136.006q.188,2.955.374,5.909c.033.523,1.2.5,1.167-.02q-.186-2.955-.374-5.909c-.033-.523-1.2-.5-1.167.02Z" style="fill:#e6bec1"/><path d="M361.814,151.727q-.128,2.7-.254,5.39c-.024.512,1.142.506,1.167-.02q.128-2.7.254-5.391c.025-.512-1.142-.506-1.167.021Z" style="fill:#e6bec1"/><path d="M352.318,133.64q-.216,2.787-.431,5.574c-.04.507,1.126.506,1.167-.021q.216-2.787.431-5.573c.039-.507-1.126-.507-1.167.02Z" style="fill:#e6bec1"/><path d="M130.716,114.5c-14.773-1.66-32.622,2.556-42.793,13.279-6.959,7.338-9.456,16.586-10.105,25.306a71.051,71.051,0,0,0,11.152,43.8c7.733,12.051,19.578,23.179,21.141,38.536.595,5.849-.359,12.114,1.741,17.7,3.9,10.38,18.13,15.361,30.665,12.494,12.68-2.9,22.938-12.18,28.992-22.581,5.992-10.294,8.358-21.547,10.389-32.442C190.235,165.875,185.064,120.608,130.716,114.5Z" style="fill:#cccccb;fill-rule:evenodd"/><path d="M153.255,143.966c-10.678-1.842-24.239-.379-32.847,5.385A24.419,24.419,0,0,0,110.3,163.764a34.2,34.2,0,0,0,3.552,26.608c4.4,7.592,11.928,14.876,11.449,24.068-.183,3.5-1.548,7.16-.6,10.592,1.767,6.379,11.692,10.158,21.206,9.186a39.022,39.022,0,0,0,23.693-11.7c5.492-5.754,8.424-12.285,11.07-18.625C191.539,177.87,192.537,150.741,153.255,143.966Z" style="fill:#f0d8d8;fill-rule:evenodd"/><path d="M151.916,167.706a30.09,30.09,0,0,1,2.506,7c.108.48,1.282.349,1.152-.23a30.093,30.093,0,0,0-2.507-7c-.228-.453-1.407-.278-1.151.23Z" style="fill:#e6bec1"/><path d="M142.5,184.708l3.312,7.7c.2.465,1.381.3,1.152-.23q-1.656-3.849-3.313-7.7c-.2-.465-1.38-.3-1.151.23Z" style="fill:#e6bec1"/><path d="M154.259,201.72a61.923,61.923,0,0,0,2.652,6.655c.214.459,1.394.29,1.151-.231a61.834,61.834,0,0,1-2.651-6.655c-.159-.476-1.337-.328-1.152.231Z" style="fill:#e6bec1"/><path d="M147.511,197.825l3.6,7.584c.217.458,1.4.287,1.151-.231q-1.8-3.792-3.6-7.584c-.218-.458-1.4-.287-1.152.231Z" style="fill:#e6bec1"/><path d="M153.564,184.606a53.6,53.6,0,0,1,.886,8.457c.013.534,1.211.514,1.2-.021a53.6,53.6,0,0,0-.886-8.457c-.1-.533-1.291-.483-1.2.021Z" style="fill:#e6bec1"/><path d="M137.03,184.808q1.968,3.4,3.707,6.912c.225.454,1.405.281,1.152-.231q-1.74-3.518-3.708-6.911c-.254-.438-1.432-.253-1.151.23Z" style="fill:#e6bec1"/><path d="M159,212.538a44.949,44.949,0,0,0,3.5,6.05c.279.407,1.4.125,1.027-.417a43.525,43.525,0,0,1-3.378-5.864c-.218-.457-1.4-.286-1.151.231Z" style="fill:#e6bec1"/><path d="M151.984,210.5q2.05,2.966,4.1,5.932c.28.405,1.4.123,1.028-.417l-4.1-5.932c-.28-.406-1.4-.123-1.028.417Z" style="fill:#e6bec1"/><path d="M147.87,182.091q.5,2.32,1.009,4.642c.115.53,1.305.473,1.2-.021l-1.008-4.642c-.115-.53-1.305-.474-1.2.021Z" style="fill:#e6bec1"/><path d="M151.281,176.622a29.622,29.622,0,0,1,1.628,4.4c.135.479,1.312.339,1.151-.23a29.522,29.522,0,0,0-1.628-4.4c-.213-.46-1.393-.291-1.151.231Z" style="fill:#e6bec1"/><path d="M142.371,172.466l1.669,4.582c.172.473,1.351.32,1.151-.23l-1.668-4.582c-.172-.474-1.352-.32-1.152.23Z" style="fill:#e6bec1"/><path d="M141.33,198.358l2.994,5.292c.249.441,1.427.258,1.151-.23l-2.993-5.292c-.25-.441-1.428-.258-1.152.23Z" style="fill:#e6bec1"/><path d="M148.107,213.185l3.271,4.544c.288.4,1.411.115,1.028-.417l-3.272-4.544c-.288-.4-1.41-.115-1.027.417Z" style="fill:#e6bec1"/><path d="M149.792,194.159l3.217,4.2c.3.392,1.425.1,1.028-.417l-3.218-4.2c-.3-.392-1.424-.1-1.027.417Z" style="fill:#e6bec1"/><path d="M351.094,157.134q1.37,4.908,2.293,9.892c4.537,24.426.857,50.7-14.025,69.783-11.436,14.663-28.608,24.132-46.7,29.7-20.281,6.242-42.573,7.927-63.6,2.2-30.993-8.44-57.443-33.641-67.055-63.888C143,145.011,191.679,87.831,251.641,84.6c27.112-1.461,55.584,8.851,74.879,28.7C338.423,125.551,346.579,140.952,351.094,157.134Z" style="fill:#cccccb;fill-rule:evenodd"/><path d="M327.165,218.486a.646.646,0,0,1-.47-1.091,16.325,16.325,0,0,0,4.244-8.628.655.655,0,0,1,.738-.542.647.647,0,0,1,.541.739,17.621,17.621,0,0,1-4.582,9.319A.646.646,0,0,1,327.165,218.486Z" style="fill:#bdbdbc"/><path d="M340.311,217.085a.639.639,0,0,1-.384-.127.647.647,0,0,1-.136-.905,30.026,30.026,0,0,0,4.284-8.126.647.647,0,1,1,1.224.421,31.309,31.309,0,0,1-4.468,8.475A.642.642,0,0,1,340.311,217.085Z" style="fill:#bdbdbc"/><path d="M333.726,227.045a.647.647,0,0,1-.43-1.131,28.875,28.875,0,0,0,4.452-4.99.647.647,0,1,1,1.059.742,30.09,30.09,0,0,1-4.651,5.215A.645.645,0,0,1,333.726,227.045Z" style="fill:#bdbdbc"/><path d="M336.886,197.994a.664.664,0,0,1-.152-.018.646.646,0,0,1-.478-.779c.749-3.128,1.355-6.321,1.8-9.492a.647.647,0,0,1,1.281.179c-.452,3.212-1.065,6.447-1.824,9.614A.646.646,0,0,1,336.886,197.994Z" style="fill:#bdbdbc"/><path d="M346.426,195.028a.647.647,0,0,1-.616-.849,37.63,37.63,0,0,0,1.863-12.225.647.647,0,0,1,.639-.655h.008a.646.646,0,0,1,.647.638,38.962,38.962,0,0,1-1.926,12.645A.648.648,0,0,1,346.426,195.028Z" style="fill:#bdbdbc"/><path d="M332.64,180h-.014a.648.648,0,0,1-.633-.661,16.735,16.735,0,0,0-1.044-6.174.647.647,0,0,1,1.214-.448,18.024,18.024,0,0,1,1.124,6.65A.648.648,0,0,1,332.64,180Z" style="fill:#bdbdbc"/><path d="M225.753,247.9a.637.637,0,0,1-.13-.013,20.624,20.624,0,0,1-9.733-4.955.647.647,0,0,1,.877-.951,19.327,19.327,0,0,0,9.114,4.638.647.647,0,0,1-.128,1.281Z" style="fill:#bdbdbc"/><path d="M214.289,253.931a.648.648,0,0,1-.2-.031,36.868,36.868,0,0,1-9.111-4.354.647.647,0,0,1,.713-1.081,35.578,35.578,0,0,0,8.791,4.2.647.647,0,0,1-.2,1.264Z" style="fill:#bdbdbc"/><path d="M226.1,258.337a.713.713,0,0,1-.079,0,34.738,34.738,0,0,1-7.13-1.648.646.646,0,0,1,.422-1.222,33.623,33.623,0,0,0,6.865,1.585.647.647,0,0,1-.078,1.29Z" style="fill:#bdbdbc"/><path d="M204.522,236.754a.644.644,0,0,1-.4-.14c-2.68-2.123-5.291-4.381-7.759-6.713a.647.647,0,1,1,.888-.941c2.442,2.306,5.023,4.539,7.675,6.64a.647.647,0,0,1-.4,1.154Z" style="fill:#bdbdbc"/><path d="M194.924,239.564a.65.65,0,0,1-.363-.111,44.622,44.622,0,0,1-9.815-9.075.648.648,0,1,1,1.013-.807,43.277,43.277,0,0,0,9.53,8.811.647.647,0,0,1-.365,1.182Z" style="fill:#bdbdbc"/><path d="M196.133,220.014a.644.644,0,0,1-.493-.228,19.049,19.049,0,0,1-3.45-5.933.647.647,0,1,1,1.218-.437,17.783,17.783,0,0,0,3.217,5.531.648.648,0,0,1-.492,1.067Z" style="fill:#bdbdbc"/><path d="M216.755,197.257a32.869,32.869,0,0,0-5.305,1.459,9.5,9.5,0,0,0-3.6,2.065,3.685,3.685,0,0,0-1.025,3.722c.669,1.848,3.016,2.66,5.067,2.715a17.02,17.02,0,0,0,6.39-1.211,10.916,10.916,0,0,0,3.567-2,4.746,4.746,0,0,0,1.689-3.491C223.479,197.062,219.457,196.753,216.755,197.257Z" style="fill:#f9bebf;fill-rule:evenodd"/><path d="M310.632,178.433a32.676,32.676,0,0,0-5.306,1.459,9.5,9.5,0,0,0-3.6,2.065,3.684,3.684,0,0,0-1.024,3.721c.669,1.848,3.016,2.66,5.067,2.715a17.039,17.039,0,0,0,6.39-1.21,10.963,10.963,0,0,0,3.567-2,4.75,4.75,0,0,0,1.689-3.492C317.356,178.237,313.334,177.928,310.632,178.433Z" style="fill:#f9bebf;fill-rule:evenodd"/><path d="M209.272,188.109a1,1,0,0,1-.986-.852,4.569,4.569,0,0,1,1.184-3.556,8.066,8.066,0,0,1,6.558-2.917,7.142,7.142,0,0,1,6.107,4.013,1,1,0,1,1-1.829.806,5.173,5.173,0,0,0-4.387-2.823,6,6,0,0,0-4.9,2.186,2.821,2.821,0,0,0-.756,2,1,1,0,0,1-.84,1.137A1.081,1.081,0,0,1,209.272,188.109Z" style="fill:#333"/><path d="M287.6,170.519a1,1,0,0,1-.977-.793,4.566,4.566,0,0,1,.964-3.62,7.993,7.993,0,0,1,6.364-3.279h0a7.183,7.183,0,0,1,6.327,3.673,1,1,0,0,1-1.778.912,5.214,5.214,0,0,0-4.548-2.587h0a5.962,5.962,0,0,0-4.744,2.45,2.815,2.815,0,0,0-.63,2.037,1,1,0,0,1-.771,1.185A.978.978,0,0,1,287.6,170.519Z" style="fill:#333"/><g style="opacity:0.68"><g style="opacity:0.7000000000000001"><path d="M118.4,174.2c-1.622-25.163,4.706-49.74,16.955-71.685,2.669-4.781-4.507-8.46-8.067-9.053-5.216-.869-11.147.649-13.833,5.462-12.791,22.915-19.388,49.405-17.7,75.671.345,5.352,6.972,7.352,11.451,7.274,4.034-.07,11.535-2.314,11.19-7.669Z" style="fill:#fff"/></g><g style="opacity:0.68"><path d="M170.079,61.779a8.494,8.494,0,0,1,.3,2.289,10.615,10.615,0,0,1-3.557,7.476,17.859,17.859,0,0,1-7.455,3.9c-4.533,1.262-9.746,1.21-13.5-1.6-9.025-6.759.114-16.122,7.414-18.806a14.652,14.652,0,0,1,11.077.107A10.556,10.556,0,0,1,170.079,61.779Z" style="fill:#fff"/></g></g><g style="opacity:0.43"><path d="M367.226,66.487c-3.008,6.625-27.607,2.418-54.822-9.338-27.078-11.7-46.544-26.468-43.6-33.048s27.24-2.524,54.381,9.129C350.464,44.942,370.236,59.857,367.226,66.487Z" style="fill:#fff"/></g><path d="M204.248,417.016l-2.6-2.049c24.274-30.842,42.628-40.27,54.322-44.678l1.168,3.1C233.492,382.3,215.628,402.556,204.248,417.016Z" style="fill:#cccccb"/><path d="M195.489,430.943a19.9,19.9,0,0,1-6.079,3.193,1.382,1.382,0,0,1-1.844-1.584,26.716,26.716,0,0,0-.037-5.416c-.071-.63-.75-.757-1.283-.28a7.36,7.36,0,0,1-5.266,1.775,2.5,2.5,0,0,1-2.091-3.095c2.422-9.563,18.373-18.8,27.8-7.554,2.446,4.6.516,10.733-2.414,16.017-6.467,11.665-8.825,3.09-7.667-2.308C196.775,430.927,196.111,430.469,195.489,430.943Z" style="fill:#cccccb"/><path d="M437.354,263.733c3.858.462,8.012,1.478,10.389,4.552,1.955,2.528,2.29,5.976,1.893,9.147-.387,3.086-1.487,6.229-3.816,8.289a11.518,11.518,0,0,1-9.2,2.375,24.931,24.931,0,0,1-9.06-3.58c.363,1.3,1.756,2.358,1.479,3.68a2.2,2.2,0,0,1-2.84,1.3,6.317,6.317,0,0,1-2.693-2.2q-3.916-4.659-7.725-9.409a2.747,2.747,0,0,1-.443-.684,2.918,2.918,0,0,1,.468-2.29c1.978-3.91,1.682-10.654,6.19-11.883C426.052,261.931,433.179,263.232,437.354,263.733Z" style="fill:#9dc7c0"/><path d="M412.587,256.742c2.929,1.293,5.988,2.816,7.339,5.833,1.867,4.166-.107,9.522-.844,14.612a5.564,5.564,0,0,1-6.676,4.678c-1.74-.386-3.437-.97-5.1-1.518a132.832,132.832,0,0,0-40.791-6.47c-12.223-.063-22.763,2.538-25.422-11.343-2.024-10.571,3.552-21.29,15.111-20.015C376.988,244.813,393.682,248.4,412.587,256.742Z" style="fill:#e3f2ef"/><path d="M423.415,258.08c1.231,1.123,1.232,2.8,1.11,4.61a40.529,40.529,0,0,1-2.581,11.765c-.887,2.321-2.922,6.589-4.756,8.265s-3.589.663-5.971-.041a3.982,3.982,0,0,1-2.178-1.464c-.881-1.277-.656-2.992-.324-4.507a100.2,100.2,0,0,1,5.605-16.338c.576-1.41,1.242-2.925,2.573-3.666,1.887-1.05,4.043-.09,5.758.84A3.83,3.83,0,0,1,423.415,258.08Z" style="fill:#aeddd5"/><path d="M137.1,304.73c-3.885-.083-8.118-.687-10.784-3.514-2.193-2.325-2.864-5.723-2.779-8.918.083-3.109.87-6.345,2.986-8.623a11.523,11.523,0,0,1,8.926-3.264,24.934,24.934,0,0,1,9.368,2.676c-.49-1.259-1.979-2.175-1.833-3.518a2.2,2.2,0,0,1,2.7-1.574,6.327,6.327,0,0,1,2.9,1.921q4.353,4.254,8.608,8.608a2.8,2.8,0,0,1,.508.637,2.917,2.917,0,0,1-.242,2.325c-1.586,4.085-.632,10.768-5,12.432C148.525,305.417,141.305,304.819,137.1,304.73Z" style="fill:#9dc7c0"/><path d="M164.769,310.022c-3.43-1.062-7.059-2.368-9.018-5.521-2.694-4.336-1.276-10.309-1.2-15.777a5.621,5.621,0,0,1,6.538-5.429c1.912.261,3.8.728,5.646,1.157a136.439,136.439,0,0,0,41.736,3.211c11.3-.9,20.172-4.156,25.52,8.832,4.159,10.1,5.446,20.852-5.364,20.985C208.325,317.73,186.427,316.726,164.769,310.022Z" style="fill:#e3f2ef"/><path d="M151.525,308.991c-1.335-1-1.5-2.66-1.555-4.479a40.553,40.553,0,0,1,1.417-11.962c.656-2.4,2.263-6.842,3.925-8.69s3.506-1.011,5.946-.543a3.975,3.975,0,0,1,2.31,1.244c1,1.184.946,2.913.765,4.453a100.2,100.2,0,0,1-3.98,16.808c-.435,1.46-.95,3.032-2.2,3.9-1.775,1.23-4.015.485-5.812-.272A3.876,3.876,0,0,1,151.525,308.991Z" style="fill:#aeddd5"/><path d="M259.354,412.742c4.2,2.213,9.662,2.074,14.841,1.826,31.91-1.524,64.321-5.43,91.3-20.194,9.692-5.305,18.862-12.486,22.305-21.979,2.953-8.142,1.268-16.735-.66-24.716a371.171,371.171,0,0,0-36.2-93.644,8,8,0,0,0-2.3-2.9c-2.457-1.707-6.228-1.1-9.42-.379-30.7,6.93-61.91,18.547-110.521,33.464-14.766,4.532-1.35,46.444,2.631,60.271C236.149,361.241,241.17,403.158,259.354,412.742Z" style="fill:#e3f2ef"/><path d="M311.757,473.049a27.4,27.4,0,0,0,6.263,13.432,8.456,8.456,0,0,1,2.133,3.2,4.546,4.546,0,0,1-.261,2.641c-1.527,4.2-6.144,6.826-10.977,7.478s-9.874-.368-14.7-1.681c-21.606-5.876-24-32.929-29.516-49.373-6.36-18.942-12.19-38.049-15.7-57.452a11.3,11.3,0,0,1,.031-5.934c1.506-4.079,6.466-4.931,10.464-5.058,15.763-.5,54.549-9.692,56.575,13.18.979,11.043-3.069,23.978-4.066,35.1a302.939,302.939,0,0,0-1.16,33A70.257,70.257,0,0,0,311.757,473.049Z" style="fill:#e3f2ef"/><path d="M358.094,455.452a24.957,24.957,0,0,1-1.012,14.317,7.653,7.653,0,0,0-.858,3.615,4.483,4.483,0,0,0,1.235,2.334c3.032,3.352,8.448,4.27,13.336,3.311s9.351-3.519,13.5-6.276c18.571-12.342,10.782-37.883,9.957-54.719-.949-19.394-2.469-38.767-6.327-57.666a10.955,10.955,0,0,0-2.241-5.424c-2.968-3.249-8.052-2.431-11.942-1.259-15.334,4.619-56.03,8.7-49.451,30.3,3.176,10.427,11.888,20.967,16.992,30.831A294.8,294.8,0,0,1,354.7,444.651,66.929,66.929,0,0,1,358.094,455.452Z" style="fill:#e3f2ef"/><path d="M263.487,400.126c4.89-1.092,9.943-.972,14.95-.8,6.449.218,12.971.516,19.277,2.064,6.339,1.555,19.285,7.568,18.047,9.956-2.25,1.158-5.947.07-8.438-.3a157.576,157.576,0,0,0-43.466-.424c-3.6.469-12.827,3.009-13.522-2.662C249.711,402.86,259.936,400.919,263.487,400.126Z" style="fill:#aeddd5"/><path d="M374.089,366.832c-4.807,1.808-9.084,4.749-13.293,7.707-5.422,3.809-10.863,7.728-15.426,12.6-4.586,4.9-12.384,17.335-10,18.691,2.576-.268,5.15-3.279,7.086-5a162.537,162.537,0,0,1,37.125-24.777c3.356-1.62,12.69-4.618,10.147-9.881C387.445,361.444,377.581,365.519,374.089,366.832Z" style="fill:#aeddd5"/><path d="M343.972,334.563c-.033.066-.069.132-.107.2-.7,1.181-2.16,1.637-3.487,2L266.847,356.8c-1.091.3-2.367.562-3.265-.125a3.71,3.71,0,0,1-1.079-1.949q-3.826-12.392-6.662-25.061c-1.646-7.362.127-10.294,6.991-12.4q11.645-3.567,23.359-6.9,23.048-6.564,46.342-12.222a2.219,2.219,0,0,1,3.2,2.069q4.071,15.181,8.14,30.364C344.23,331.89,344.563,333.364,343.972,334.563Z" style="fill:#aeddd5;fill-rule:evenodd"/><path d="M339.694,331.9c-.031.055-.066.109-.1.163a5.556,5.556,0,0,1-3.229,1.72q-33.731,9.194-67.462,18.387c-1,.273-2.168.526-2.965,0a2.691,2.691,0,0,1-.925-1.548q-3.119-9.93-5.328-20.114c-1.283-5.917.416-8.345,6.72-10.249q10.695-3.231,21.446-6.276,21.155-5.993,42.505-11.256a3,3,0,0,1,1.741-.079,2.188,2.188,0,0,1,1.114,1.663q3.259,12.183,6.518,24.367A4.217,4.217,0,0,1,339.694,331.9Z" style="fill:#e2f3f0;fill-rule:evenodd"/><path d="M281.022,326.514c-4.978-4.9-12.9,5.1-6.964,9.737,5.028,3.921,10.962-3.293,8.15-8.167A7.329,7.329,0,0,0,281.022,326.514Z" style="fill:#9dc7c0"/><path d="M301.976,320.584c-4.978-4.9-12.9,5.1-6.964,9.737,5.028,3.921,10.962-3.293,8.15-8.167A7.3,7.3,0,0,0,301.976,320.584Z" style="fill:#aeddd5"/><path d="M322.173,314.935c-4.977-4.9-12.905,5.1-6.963,9.737,5.028,3.922,10.962-3.292,8.15-8.167A7.349,7.349,0,0,0,322.173,314.935Z" style="fill:#c4e6e0"/><path d="M362.717,260.3a66.273,66.273,0,0,0-4.684-12.563,9.983,9.983,0,0,0-3.364-4.41c-5.677-3.49-6.513,5.109-4.953,8.511,1.117,2.435,2.9,4.5,4.253,6.81,2.858,4.891,3.672,10.684,5.752,15.953a2.659,2.659,0,0,0,1.133,1.541c1.054.506,2.244-.5,2.725-1.562a10.184,10.184,0,0,0,.605-4.686A48.167,48.167,0,0,0,362.717,260.3Z" style="fill:#aeddd5"/><path d="M218.71,305.945a79.588,79.588,0,0,1-1.026-13.272c.02-3.045.919-14.717,6.685-8.889a7.6,7.6,0,0,1,1.971,4.038c.491,2.8-.278,5.4-.7,8.015-1.3,8.089.747,16.337.985,24.121a2.116,2.116,0,0,1-.572,1.844c-.863.648-2.147-.1-2.812-.95a13.929,13.929,0,0,1-2.106-4.553A76.549,76.549,0,0,1,218.71,305.945Z" style="fill:#aeddd5"/><path d="M233.859,288.267c42.374.543,83.632-9.036,114.8-32.764a13.9,13.9,0,0,0,5.641-10.712c.2-6.01-4.668-15.4-11.535-10.654-25.409,17.563-64.375,30.737-104.078,32.9a40.65,40.65,0,0,1-7.423-.263c-7.189-.932-16.746-1.647-17.855,9.051C212.105,288.368,225.239,288.157,233.859,288.267Z" style="fill:#aeddd5"/><path d="M273.24,267.988c-1.947-3.883-4.155-7.654-6.457-11.305-6.993-11.093-15.027-21.654-20.143-33.729-3.921-9.255-7.6-22.453-5.682-32.446,1.817-9.475,11.892-17.745,22.187-18.608,7.724-.647,14.711,4.689,19.584,10.718,7.635,9.445,12.109,21.05,15.384,32.745,8.418,30.051,9.56,62.389,1.245,92.468-.764,2.761-1.695,5.647-3.831,7.555-3.793,3.387-10.8,1.7-12.631-3.045a14.847,14.847,0,0,1-5.23,1.8,5.055,5.055,0,0,1-4.816-2.147c-1.239-2.144-.057-4.91,1.6-6.752s3.8-3.3,4.962-5.486a12.957,12.957,0,0,0,1.067-6.669C280.1,284.292,277.21,275.906,273.24,267.988Z" style="fill:#d6d6d5;fill-rule:evenodd"/><path d="M250.789,203.062a1,1,0,0,1-.569-1.827,69.325,69.325,0,0,1,28.639-11.383,1,1,0,1,1,.306,1.98,67.31,67.31,0,0,0-27.808,11.053A1,1,0,0,1,250.789,203.062Z" style="fill:#c1c1c0"/><path d="M255.171,214.556a1,1,0,0,1-.405-1.919,92.8,92.8,0,0,1,30.911-7.659,1,1,0,1,1,.142,2,90.791,90.791,0,0,0-30.246,7.493A.991.991,0,0,1,255.171,214.556Z" style="fill:#c1c1c0"/><path d="M261.19,231.59a1,1,0,0,1-.452-1.9,79.339,79.339,0,0,1,29.655-8.224.985.985,0,0,1,1.072.926,1,1,0,0,1-.925,1.072,77.313,77.313,0,0,0-28.9,8.015A1,1,0,0,1,261.19,231.59Z" style="fill:#c1c1c0"/><path d="M269.173,250.337a1,1,0,0,1-.44-1.9,111.536,111.536,0,0,1,22.427-8.1,1,1,0,1,1,.476,1.946,109.573,109.573,0,0,0-22.024,7.952A.989.989,0,0,1,269.173,250.337Z" style="fill:#c1c1c0"/></svg>