<?xml version="1.0" encoding="utf-8"?>
<!-- Generator: Adobe Illustrator 21.1.0, SVG Export Plug-In . SVG Version: 6.00 Build 0)  -->
<svg version="1.1" id="Layer_1" xmlns="http://www.w3.org/2000/svg" xmlns:xlink="http://www.w3.org/1999/xlink" x="0px" y="0px"
	 viewBox="0 0 64 64" style="enable-background:new 0 0 64 64;" xml:space="preserve">
<style type="text/css">
	.st0{fill:#ACBDC5;}
	.st1{fill-rule:evenodd;clip-rule:evenodd;fill:#314A52;}
</style>
<g id="Moon">
	<circle class="st0" cx="32" cy="32" r="26"/>
	<path class="st1" d="M32,4C16.5,4,4,16.5,4,32c0,15.5,12.5,28,28,28c15.5,0,28-12.5,28-28C60,16.5,47.5,4,32,4z M30.9,8
		c0.4,0,0.7,0,1.1,0c9.3,0,17.4,5.3,21.3,13c-1-0.6-2.1-1-3.3-1c-3.3,0-6,2.7-6,6c0,3.3,2.7,6,6,6c2.6,0,4.8-1.7,5.7-4
		c0.2,1.3,0.3,2.6,0.3,4c0,12-10.7,18-24,18c-0.2,0-0.4,0-0.5,0c0.3-0.6,0.5-1.3,0.5-2c0-2.2-1.8-4-4-4c-2.2,0-4,1.8-4,4
		c0,0.4,0.1,0.8,0.2,1.2C14.8,47.3,8,41.5,8,32c0-9,4.9-16.8,12.2-20.9c0,0,0.1,0,0.1,0.1l0.1,0c1.4,0.7,3,1,4.6,0.8
		c1.6-0.2,3-0.9,4.2-1.9C29.9,9.4,30.5,8.8,30.9,8z M36,16c0-2.2,1.8-4,4-4c2.2,0,4,1.8,4,4c0,2.2-1.8,4-4,4C37.8,20,36,18.2,36,16z
		 M32,24c0,4.4-3.6,8-8,8c-4.4,0-8-3.6-8-8c0-4.4,3.6-8,8-8C28.4,16,32,19.6,32,24z M20,36c0,2.2-1.8,4-4,4c-2.2,0-4-1.8-4-4
		c0-2.2,1.8-4,4-4C18.2,32,20,33.8,20,36z"/>
</g>
</svg>
