<svg width="33" height="33" viewBox="0 0 33 33" fill="none" xmlns="http://www.w3.org/2000/svg">
<path d="M7.65279 12.7923C7.65279 11.7662 7.83217 10.7968 8.18563 9.89199C8.52335 9.0132 9.02509 8.20664 9.66414 7.51531C10.3019 6.83305 11.0317 6.24308 11.8324 5.76247C12.654 5.26544 13.5435 4.89047 14.4729 4.64931C15.4136 4.4023 16.3822 4.27774 17.3547 4.27869C18.857 4.27869 20.255 4.59655 21.5515 5.22963C22.8311 5.85116 23.9202 6.805 24.705 7.99143C25.5148 9.19824 25.9171 10.5633 25.9171 12.0853C25.9171 12.998 25.8274 13.8909 25.6441 14.7641C25.4641 15.6367 25.178 16.484 24.7921 17.2871C24.4243 18.0646 23.9434 18.7833 23.365 19.4198C22.7837 20.0463 22.0798 20.5464 21.297 20.8891C20.4471 21.2616 19.5277 21.449 18.5998 21.4391C17.9548 21.4391 17.3112 21.2874 16.6755 20.9827C16.0398 20.6794 15.5834 20.2626 15.3091 19.7284C15.2128 20.0991 15.0809 20.6345 14.9055 21.3349C14.7367 22.0339 14.6233 22.485 14.5731 22.6894C14.5204 22.8925 14.4228 23.2315 14.2803 23.701C14.1837 24.0483 14.0598 24.3875 13.9097 24.7153L13.456 25.6042C13.2598 25.9857 13.0405 26.3548 12.7992 26.7095C12.5605 27.055 12.265 27.4678 11.9129 27.9426L11.7164 28.0125L11.5858 27.8701C11.4447 26.3758 11.3721 25.4816 11.3721 25.1861C11.3721 24.3117 11.4763 23.3304 11.6821 22.241C11.8839 21.1529 12.203 19.7852 12.6317 18.1405C13.0603 16.4971 13.3057 15.5303 13.3716 15.2441C13.0696 14.6282 12.9166 13.8237 12.9166 12.8345C12.9166 12.0445 13.1632 11.3045 13.6578 10.6082C14.1537 9.91441 14.7802 9.56754 15.5399 9.56754C16.1215 9.56754 16.5726 9.7601 16.8957 10.1465C17.2202 10.5317 17.3785 11.017 17.3785 11.6092C17.3785 12.237 17.1701 13.1458 16.7507 14.3341C16.3312 15.5238 16.1229 16.4114 16.1229 17.0009C16.1229 17.5984 16.3365 18.0983 16.7639 18.49C17.1856 18.8819 17.7433 19.0943 18.3189 19.0822C18.8411 19.0822 19.3252 18.9635 19.7749 18.7248C20.2177 18.493 20.6009 18.1622 20.8947 17.758C21.5347 16.88 21.9909 15.8819 22.236 14.8234C22.3626 14.2668 22.4602 13.7379 22.5209 13.2407C22.5855 12.7408 22.6132 12.2687 22.6132 11.8202C22.6132 10.1756 22.0909 8.89357 21.053 7.97561C20.0097 7.05764 18.6512 6.6013 16.9802 6.6013C15.0796 6.6013 13.4903 7.21591 12.2176 8.4491C10.9435 9.67833 10.3025 11.2412 10.3025 13.1365C10.3025 13.5546 10.3658 13.9582 10.4858 14.3486C10.6032 14.7377 10.7311 15.0476 10.8696 15.2771C11.0068 15.5026 11.136 15.7229 11.2534 15.926C11.3721 16.1291 11.4341 16.2742 11.4341 16.3613C11.4341 16.6277 11.3642 16.9746 11.2231 17.4032C11.0767 17.8319 10.9039 18.0455 10.6955 18.0455C10.6757 18.0455 10.594 18.031 10.4515 18.0007C9.95821 17.8534 9.51269 17.5781 9.16031 17.2027C8.78632 16.8137 8.49117 16.356 8.29115 15.8548C8.0917 15.3554 7.93635 14.8395 7.82689 14.313C7.70863 13.8148 7.65018 13.3043 7.65279 12.7923Z" fill="#331B00"/>
</svg>
