<svg width="33" height="33" viewBox="0 0 33 33" fill="none" xmlns="http://www.w3.org/2000/svg">
<path d="M29.3139 8.38508C28.3924 8.78258 27.3896 9.06866 26.3567 9.18008C27.4291 8.54298 28.2321 7.53647 28.6152 6.34938C27.6089 6.94801 26.5065 7.36778 25.3569 7.59007C24.8764 7.07641 24.2953 6.6672 23.6498 6.38795C23.0042 6.10869 22.3081 5.96538 21.6047 5.96693C18.759 5.96693 16.4703 8.27366 16.4703 11.1044C16.4703 11.5019 16.5185 11.8994 16.5968 12.2818C12.3357 12.059 8.53529 10.0233 6.00873 6.90648C5.54837 7.6928 5.30712 8.58812 5.31009 9.49929C5.31009 11.282 6.21652 12.854 7.59874 13.7785C6.78418 13.7464 5.98868 13.5225 5.27696 13.125V13.1882C5.27696 15.6847 7.04164 17.7535 9.39353 18.2293C8.95194 18.344 8.49767 18.4027 8.04142 18.404C7.70715 18.404 7.39096 18.3708 7.07175 18.3257C7.72221 20.3614 9.61637 21.84 11.8719 21.8881C10.1072 23.2704 7.89687 24.0834 5.4968 24.0834C5.06617 24.0834 4.66866 24.0684 4.2561 24.0202C6.53271 25.4807 9.23393 26.3239 12.1429 26.3239C21.5866 26.3239 26.7542 18.5003 26.7542 11.7097C26.7542 11.4868 26.7542 11.264 26.7391 11.0411C27.7389 10.3094 28.6152 9.40293 29.3139 8.38508Z" fill="#331B00"/>
</svg>
