<svg width="33" height="33" viewBox="0 0 33 33" fill="none" xmlns="http://www.w3.org/2000/svg">
<path d="M16.7819 12.4621C14.7538 12.4621 13.0987 14.1172 13.0987 16.1454C13.0987 18.1735 14.7538 19.8286 16.7819 19.8286C18.8101 19.8286 20.4652 18.1735 20.4652 16.1454C20.4652 14.1172 18.8101 12.4621 16.7819 12.4621ZM27.829 16.1454C27.829 14.6201 27.8428 13.1087 27.7572 11.5862C27.6715 9.81774 27.2681 8.24827 25.9749 6.95512C24.679 5.6592 23.1123 5.25854 21.3439 5.17288C19.8186 5.08723 18.3072 5.10104 16.7847 5.10104C15.2594 5.10104 13.748 5.08723 12.2255 5.17288C10.4571 5.25854 8.88761 5.66196 7.59446 6.95512C6.29854 8.25103 5.89788 9.81774 5.81223 11.5862C5.72657 13.1114 5.74038 14.6229 5.74038 16.1454C5.74038 17.6679 5.72657 19.1821 5.81223 20.7046C5.89788 22.473 6.3013 24.0424 7.59446 25.3356C8.89038 26.6315 10.4571 27.0322 12.2255 27.1178C13.7508 27.2035 15.2622 27.1897 16.7847 27.1897C18.31 27.1897 19.8214 27.2035 21.3439 27.1178C23.1123 27.0322 24.6818 26.6288 25.9749 25.3356C27.2709 24.0397 27.6715 22.473 27.7572 20.7046C27.8456 19.1821 27.829 17.6706 27.829 16.1454ZM16.7819 21.8126C13.6458 21.8126 11.1147 19.2815 11.1147 16.1454C11.1147 13.0092 13.6458 10.4781 16.7819 10.4781C19.9181 10.4781 22.4492 13.0092 22.4492 16.1454C22.4492 19.2815 19.9181 21.8126 16.7819 21.8126ZM22.6813 11.5696C21.949 11.5696 21.3577 10.9783 21.3577 10.246C21.3577 9.51379 21.949 8.92248 22.6813 8.92248C23.4135 8.92248 24.0048 9.51379 24.0048 10.246C24.005 10.4199 23.9709 10.5921 23.9045 10.7528C23.8381 10.9135 23.7406 11.0595 23.6176 11.1824C23.4947 11.3054 23.3487 11.4028 23.188 11.4693C23.0273 11.5357 22.8551 11.5698 22.6813 11.5696Z" fill="#331B00"/>
</svg>
