<svg width="133" height="133" viewBox="0 0 133 133" fill="none" xmlns="http://www.w3.org/2000/svg">
<path d="M112.024 54.7708L97.3566 66.3698C100.102 65.1069 102.821 63.7518 105.477 62.3039L110.038 59.634L113.022 67.9052L119.51 85.8752L121.314 90.8678C86.3564 106.315 52.6806 124.459 52.6806 124.459L44.1085 109.827C40.524 110.343 38.3071 110.569 37.9005 110.608L28.0389 86.1653L38.4589 77.9265C27.2683 79.3196 19.5831 79.5745 18.7562 79.6004L11.3049 54.0834C36.2859 39.136 52.4138 26.7989 61.5464 19.0814C70.9709 11.1172 75.0741 6.31061 75.468 5.83918L75.4436 5.87283L96.9257 22.994C96.4196 23.6303 91.6529 29.4811 80.4376 39.077C79.818 39.6055 79.1948 40.1361 78.5621 40.6674C84.8335 38.3568 90.904 35.584 96.3715 32.2614L112.024 54.7708Z" fill="#FE9925"/>
<path d="M90.7038 55.7388V84.1025H49.2492V79.7388H86.3401V55.7388H90.7038ZM81.9765 75.3752H42.7038V49.1934H81.9765V75.3752ZM68.8856 62.2843C68.8856 58.6625 65.962 55.7388 62.3401 55.7388C58.7183 55.7388 55.7947 58.6625 55.7947 62.2843C55.7947 65.9061 58.7183 68.8297 62.3401 68.8297C65.962 68.8297 68.8856 65.9061 68.8856 62.2843Z" fill="#331B00"/>
</svg>
