<svg width="132" height="132" viewBox="0 0 132 132" fill="none" xmlns="http://www.w3.org/2000/svg">
<path d="M111.03 53.9344L96.362 65.5334C99.1073 64.2704 101.826 62.9153 104.482 61.4675L109.043 58.7976L112.027 67.0687L118.516 85.0388L120.32 90.0313C85.3618 105.478 51.686 123.623 51.686 123.623L43.1139 108.991C39.5293 109.506 37.3124 109.732 36.9058 109.772L27.0443 85.3289L37.4643 77.0901C26.2736 78.4831 18.5884 78.7381 17.7616 78.764L10.3103 53.2469C35.2913 38.2995 51.4191 25.9625 60.5517 18.2449C69.9762 10.2808 74.0795 5.47419 74.4734 5.00275L74.4489 5.03641L95.9311 22.1576C95.4249 22.7938 90.6582 28.6447 79.443 38.2405C78.8234 38.7691 78.2001 39.2997 77.5674 39.8309C83.8389 37.5204 89.9093 34.7476 95.3769 31.425L111.03 53.9344Z" fill="#FE9925"/>
<path d="M65.7092 67.8116C70.0558 67.8116 73.8958 68.8516 77.0158 70.2116C79.8958 71.4916 81.7092 74.3716 81.7092 77.4916V81.8116H49.7092V77.5183C49.7092 74.3716 51.5225 71.4916 54.4025 70.2383C57.5225 68.8516 61.3625 67.8116 65.7092 67.8116ZM44.3758 68.4783C47.3092 68.4783 49.7092 66.0783 49.7092 63.145C49.7092 60.2116 47.3092 57.8116 44.3758 57.8116C41.4425 57.8116 39.0425 60.2116 39.0425 63.145C39.0425 66.0783 41.4425 68.4783 44.3758 68.4783ZM47.3892 71.4116C46.4025 71.2516 45.4158 71.145 44.3758 71.145C41.7358 71.145 39.2292 71.705 36.9625 72.6916C34.9892 73.545 33.7092 75.465 33.7092 77.625V81.8116H45.7092V77.5183C45.7092 75.305 46.3225 73.225 47.3892 71.4116ZM87.0425 68.4783C89.9758 68.4783 92.3758 66.0783 92.3758 63.145C92.3758 60.2116 89.9758 57.8116 87.0425 57.8116C84.1092 57.8116 81.7092 60.2116 81.7092 63.145C81.7092 66.0783 84.1092 68.4783 87.0425 68.4783ZM97.7092 77.625C97.7092 75.465 96.4292 73.545 94.4558 72.6916C92.1892 71.705 89.6825 71.145 87.0425 71.145C86.0025 71.145 85.0158 71.2516 84.0292 71.4116C85.0958 73.225 85.7092 75.305 85.7092 77.5183V81.8116H97.7092V77.625ZM65.7092 49.8116C70.1358 49.8116 73.7092 53.385 73.7092 57.8116C73.7092 62.2383 70.1358 65.8116 65.7092 65.8116C61.2825 65.8116 57.7092 62.2383 57.7092 57.8116C57.7092 53.385 61.2825 49.8116 65.7092 49.8116Z" fill="#331B00"/>
</svg>
