<svg width="375" height="377" viewBox="0 0 375 377" fill="none" xmlns="http://www.w3.org/2000/svg">
<path d="M363.343 236.718L291.274 247.278C302.995 248.364 314.806 249.089 326.584 249.377L347.17 249.253L341.128 282.967L328.016 356.221L324.378 376.576C176.371 360.6 27.4345 356.221 27.4345 356.221L27.0147 290.169C13.9195 284.926 6.0014 281.37 4.55278 280.712L18.8909 179.053L70.0867 171.554C29.6239 154.459 3.20292 140.351 0.363281 138.829L24.9241 38.2395C138.304 36.4699 216.736 26.2636 262.573 18.0163C309.876 9.50565 333.078 1.28304 335.325 0.459961L335.177 0.525808L374.298 100.119C371.352 101.279 343.877 111.733 287.356 122.26C284.237 122.836 281.101 123.412 277.932 123.972C303.587 128.392 329.465 130.861 354.38 130.301L363.343 236.718Z" fill="#FE9925"/>
<path d="M319.36 376.576C308.13 375.326 296.9 374.016 285.66 372.846C269.27 371.146 252.89 369.376 236.47 367.966C224.04 366.906 211.55 366.456 199.1 365.596C171.54 363.696 143.99 361.576 116.42 359.796C100.01 358.736 83.5801 357.846 67.1201 357.746C55.4701 357.676 43.8201 356.896 32.1701 356.726C27.7301 356.666 26.0401 355.226 26.0901 350.586C26.3101 331.586 26.7501 312.566 26.0401 293.596C25.5001 279.066 30.5501 266.516 36.9601 254.196C42.7301 243.096 53.2301 238.526 64.4001 234.956C70.7401 232.926 76.9301 230.386 83.3001 228.466C89.5301 226.586 91.6601 222.266 92.3801 216.246C93.5901 206.166 93.4301 195.996 94.9001 185.926C96.3301 176.166 98.7201 166.676 101.21 157.166C105.1 142.346 108.43 127.386 112.41 112.606C116.71 96.616 123.19 81.386 131.57 67.156C138 56.216 146.67 47.186 160.08 44.636C160.89 44.486 161.75 44.286 162.45 43.876C176.62 35.546 190.96 37.846 205.32 43.186C220.94 48.996 232.26 59.736 241.11 73.666C252.1 90.946 256.25 110.556 260.88 129.956C266.52 153.626 270.41 177.606 270.31 202.076C270.26 215.336 274.74 227.596 279.13 239.836C280.11 242.556 282.37 244.246 285 245.666C289.97 248.356 294.94 251.146 299.48 254.476C305.65 259.006 309.84 264.966 312.08 272.566C316.73 288.396 321.38 304.376 324.22 320.466C327.1 336.806 328.39 353.866 325.24 370.666C324.87 372.626 324.64 374.616 324.34 376.586C322.69 376.576 321.03 376.576 319.36 376.576Z" fill="#FEE0A5"/>
</svg>
