<svg width="159" height="40" viewBox="0 0 159 40" fill="none" xmlns="http://www.w3.org/2000/svg">
<path d="M64.1692 27.24C62.9532 27.24 61.8492 26.976 60.8572 26.448C59.8652 25.912 59.0772 25.148 58.4932 24.156C57.9172 23.164 57.6292 21.984 57.6292 20.616C57.6292 19.248 57.9172 18.076 58.4932 17.1C59.0772 16.116 59.8652 15.364 60.8572 14.844C61.8492 14.324 62.9532 14.064 64.1692 14.064C65.0972 14.064 65.9252 14.208 66.6532 14.496C67.3812 14.776 67.9972 15.152 68.5012 15.624C69.0052 16.096 69.3892 16.616 69.6532 17.184C69.9252 17.744 70.0612 18.304 70.0612 18.864C70.0612 18.872 70.0612 18.884 70.0612 18.9C70.0612 18.916 70.0612 18.932 70.0612 18.948H68.0332C68.0332 18.908 68.0292 18.864 68.0212 18.816C68.0132 18.76 68.0052 18.704 67.9972 18.648C67.9332 18.112 67.7292 17.644 67.3852 17.244C67.0412 16.836 66.5932 16.516 66.0412 16.284C65.4892 16.052 64.8612 15.936 64.1572 15.936C63.3652 15.936 62.6292 16.108 61.9492 16.452C61.2772 16.788 60.7332 17.304 60.3172 18C59.9092 18.688 59.7052 19.56 59.7052 20.616C59.7052 21.664 59.9092 22.54 60.3172 23.244C60.7252 23.948 61.2652 24.48 61.9372 24.84C62.6172 25.192 63.3572 25.368 64.1572 25.368C65.0212 25.368 65.7332 25.232 66.2932 24.96C66.8532 24.688 67.2732 24.328 67.5532 23.88C67.8412 23.424 68.0012 22.936 68.0332 22.416H70.0612C70.0612 22.992 69.9332 23.568 69.6772 24.144C69.4212 24.712 69.0452 25.232 68.5492 25.704C68.0532 26.168 67.4372 26.54 66.7012 26.82C65.9732 27.1 65.1292 27.24 64.1692 27.24ZM79.2743 27.228C77.9943 27.228 76.8623 26.944 75.8783 26.376C74.9023 25.8 74.1343 25.016 73.5743 24.024C73.0223 23.024 72.7463 21.888 72.7463 20.616C72.7463 19.344 73.0223 18.216 73.5743 17.232C74.1343 16.248 74.9023 15.476 75.8783 14.916C76.8623 14.356 77.9943 14.076 79.2743 14.076C80.5543 14.076 81.6823 14.356 82.6583 14.916C83.6423 15.476 84.4103 16.248 84.9623 17.232C85.5223 18.216 85.8023 19.344 85.8023 20.616C85.8023 21.888 85.5223 23.024 84.9623 24.024C84.4103 25.016 83.6423 25.8 82.6583 26.376C81.6823 26.944 80.5543 27.228 79.2743 27.228ZM79.2743 25.356C80.1543 25.356 80.9303 25.16 81.6023 24.768C82.2743 24.376 82.7983 23.824 83.1743 23.112C83.5583 22.4 83.7503 21.568 83.7503 20.616C83.7503 19.664 83.5583 18.84 83.1743 18.144C82.7983 17.44 82.2743 16.9 81.6023 16.524C80.9303 16.14 80.1543 15.948 79.2743 15.948C78.4023 15.948 77.6263 16.14 76.9463 16.524C76.2743 16.9 75.7463 17.44 75.3623 18.144C74.9863 18.84 74.7983 19.664 74.7983 20.616C74.7983 21.568 74.9863 22.4 75.3623 23.112C75.7463 23.824 76.2743 24.376 76.9463 24.768C77.6263 25.16 78.4023 25.356 79.2743 25.356ZM93.6923 27.228C92.7803 27.228 92.0203 27.072 91.4123 26.76C90.8043 26.44 90.3203 26.028 89.9603 25.524C89.6083 25.02 89.3563 24.476 89.2043 23.892C89.0603 23.3 88.9883 22.732 88.9883 22.188C88.9883 21.884 88.9883 21.572 88.9883 21.252C88.9883 20.924 88.9883 20.596 88.9883 20.268V14.256H91.0403V20.004C91.0403 20.3 91.0403 20.592 91.0403 20.88C91.0403 21.168 91.0403 21.44 91.0403 21.696C91.0403 22.344 91.1283 22.944 91.3043 23.496C91.4883 24.048 91.8043 24.496 92.2523 24.84C92.7003 25.176 93.3163 25.344 94.1003 25.344C94.8363 25.344 95.4803 25.124 96.0323 24.684C96.5843 24.236 97.0163 23.68 97.3283 23.016C97.6403 22.344 97.7963 21.676 97.7963 21.012L98.9843 21.504C98.9843 22.208 98.8603 22.9 98.6123 23.58C98.3643 24.252 98.0083 24.864 97.5443 25.416C97.0883 25.968 96.5323 26.408 95.8763 26.736C95.2283 27.064 94.5003 27.228 93.6923 27.228ZM97.7963 27V14.256H99.8363V27H97.7963ZM103.379 27V14.256H105.419V18.168L104.747 17.928C104.795 17.456 104.915 16.992 105.107 16.536C105.299 16.072 105.563 15.656 105.899 15.288C106.243 14.912 106.671 14.616 107.183 14.4C107.695 14.176 108.295 14.064 108.983 14.064C109.495 14.064 109.911 14.108 110.231 14.196C110.559 14.276 110.763 14.34 110.843 14.388L110.315 16.392C110.235 16.336 110.071 16.264 109.823 16.176C109.583 16.088 109.239 16.044 108.791 16.044C108.127 16.044 107.575 16.164 107.135 16.404C106.703 16.644 106.359 16.964 106.103 17.364C105.855 17.756 105.679 18.184 105.575 18.648C105.471 19.112 105.419 19.572 105.419 20.028V27H103.379ZM117.673 27.24C116.905 27.24 116.193 27.16 115.537 27C114.889 26.832 114.321 26.592 113.833 26.28C113.353 25.96 112.977 25.568 112.705 25.104C112.441 24.64 112.309 24.108 112.309 23.508C112.309 23.444 112.309 23.38 112.309 23.316C112.309 23.244 112.309 23.184 112.309 23.136H114.361C114.361 23.184 114.361 23.224 114.361 23.256C114.361 23.288 114.361 23.336 114.361 23.4C114.361 24.048 114.661 24.544 115.261 24.888C115.861 25.224 116.681 25.392 117.721 25.392C118.361 25.392 118.933 25.328 119.437 25.2C119.941 25.072 120.337 24.876 120.625 24.612C120.921 24.348 121.069 24.016 121.069 23.616C121.069 22.952 120.757 22.48 120.133 22.2C119.517 21.912 118.593 21.664 117.361 21.456C116.713 21.344 116.097 21.2 115.513 21.024C114.929 20.84 114.409 20.604 113.953 20.316C113.505 20.028 113.149 19.672 112.885 19.248C112.629 18.816 112.501 18.3 112.501 17.7C112.501 16.924 112.729 16.268 113.185 15.732C113.649 15.188 114.273 14.776 115.057 14.496C115.841 14.208 116.713 14.064 117.673 14.064C118.601 14.064 119.457 14.212 120.241 14.508C121.025 14.804 121.653 15.236 122.125 15.804C122.605 16.364 122.845 17.056 122.845 17.88C122.845 17.912 122.845 17.952 122.845 18C122.845 18.04 122.845 18.08 122.845 18.12H120.805C120.805 18.08 120.805 18.048 120.805 18.024C120.805 18 120.805 17.972 120.805 17.94C120.805 17.476 120.657 17.096 120.361 16.8C120.065 16.496 119.681 16.272 119.209 16.128C118.737 15.976 118.233 15.9 117.697 15.9C117.193 15.9 116.697 15.956 116.209 16.068C115.721 16.172 115.317 16.348 114.997 16.596C114.677 16.844 114.517 17.184 114.517 17.616C114.517 18.048 114.665 18.396 114.961 18.66C115.265 18.916 115.689 19.128 116.233 19.296C116.785 19.456 117.433 19.604 118.177 19.74C118.841 19.86 119.469 20.012 120.061 20.196C120.653 20.372 121.173 20.6 121.621 20.88C122.077 21.16 122.433 21.516 122.689 21.948C122.953 22.372 123.085 22.892 123.085 23.508C123.085 24.132 122.941 24.676 122.653 25.14C122.373 25.604 121.981 25.992 121.477 26.304C120.981 26.616 120.405 26.848 119.749 27C119.101 27.16 118.409 27.24 117.673 27.24ZM126.914 21.444V19.62H136.766L136.406 20.22C136.406 20.172 136.406 20.128 136.406 20.088C136.406 20.04 136.406 19.996 136.406 19.956C136.406 19.22 136.25 18.548 135.938 17.94C135.634 17.324 135.178 16.832 134.57 16.464C133.962 16.096 133.21 15.912 132.314 15.912C131.41 15.912 130.614 16.104 129.926 16.488C129.238 16.872 128.702 17.416 128.318 18.12C127.934 18.816 127.742 19.648 127.742 20.616C127.742 21.6 127.926 22.448 128.294 23.16C128.67 23.872 129.202 24.42 129.89 24.804C130.578 25.188 131.394 25.38 132.338 25.38C133.01 25.38 133.594 25.312 134.09 25.176C134.586 25.032 134.994 24.844 135.314 24.612C135.642 24.372 135.89 24.112 136.058 23.832C136.226 23.552 136.326 23.272 136.358 22.992H138.398C138.358 23.504 138.198 24.012 137.918 24.516C137.638 25.02 137.242 25.48 136.73 25.896C136.218 26.304 135.59 26.632 134.846 26.88C134.102 27.128 133.246 27.252 132.278 27.252C130.998 27.252 129.87 26.972 128.894 26.412C127.918 25.852 127.15 25.076 126.59 24.084C126.038 23.092 125.762 21.952 125.762 20.664C125.762 19.36 126.042 18.216 126.602 17.232C127.162 16.24 127.934 15.464 128.918 14.904C129.902 14.344 131.026 14.064 132.29 14.064C133.578 14.064 134.694 14.344 135.638 14.904C136.582 15.464 137.31 16.232 137.822 17.208C138.334 18.176 138.59 19.28 138.59 20.52C138.59 20.648 138.586 20.816 138.578 21.024C138.57 21.232 138.558 21.372 138.542 21.444H126.914ZM151.678 27L148.114 14.256H149.926L153.298 26.1H152.926L155.158 14.256H157.282L154.534 27H151.678ZM143.062 27L140.29 14.256H142.414L144.67 26.1H144.298L147.634 14.256H149.446L145.93 27H143.062Z" fill="#331B00"/>
<path d="M10.809 10.0174L10.8087 10.0177C8.54547 12.7186 7.16515 16.2035 7.16515 20C7.16515 23.806 8.54508 27.2901 10.7972 29.9905L10.8006 29.9945C14.9518 34.9191 22.8494 33.5205 25.2424 27.5944L25.2427 27.5936C25.6701 26.5327 26.7126 25.83 27.8551 25.83H33.8451V36H31.8251H22.7151C21.9984 36 21.2879 35.9528 20.6022 35.8509L20.6022 35.8508L20.5886 35.8489C12.7561 34.7946 6.71515 28.0906 6.71515 20C6.71515 11.9091 12.7661 5.19662 20.5962 4.16138L20.6052 4.1602L20.6142 4.15885C21.288 4.05731 21.9976 4.01001 22.7251 4.01001H31.8351H33.8551V14.18H27.8651C26.7193 14.18 25.68 13.4845 25.2536 12.4186L25.2533 12.4177C22.871 6.47898 14.95 5.08001 10.809 10.0174Z" fill="#FE9925" stroke="#331B00" stroke-width="2"/>
</svg>
