<?xml version="1.0" encoding="utf-8"?>
<!-- Generator: Adobe Illustrator 21.1.0, SVG Export Plug-In . SVG Version: 6.00 Build 0)  -->
<svg version="1.1" id="Layer_1" xmlns="http://www.w3.org/2000/svg" xmlns:xlink="http://www.w3.org/1999/xlink" x="0px" y="0px"
	 viewBox="0 0 64 64" style="enable-background:new 0 0 64 64;" xml:space="preserve">
<style type="text/css">
	.st0{fill:#ACBDC5;}
	.st1{fill:#597380;}
	.st2{fill:#FFF200;}
	.st3{fill-rule:evenodd;clip-rule:evenodd;fill:#FACC2E;}
	.st4{fill-rule:evenodd;clip-rule:evenodd;fill:#314A52;}
</style>
<g id="Light_Bulb">
	<rect x="23" y="47" class="st0" width="18" height="10"/>
	<path class="st1" d="M24,54v-7h-4v7.3c0,3,1.7,5.8,4.4,7.2l3.4,1.7c1.1,0.6,2.3,0.8,3.6,0.8h1.2c1.2,0,2.5-0.3,3.6-0.8l3.4-1.7
		c2.7-1.4,4.4-4.1,4.4-7.2V47h-4v1c0,4.4-4.5,8-10,8C26.7,56,24,55.1,24,54z"/>
	<circle class="st2" cx="32" cy="28" r="17"/>
	<path class="st3" d="M12,28c0-11,9-20,20-20c11,0,20,9,20,20L40,48H20c0-1.2-0.6-2.7-1.6-4.3C18,43,17.5,42.3,17,41.6
		c-0.4-0.6-0.8-1.2-1.2-1.8C13.4,36.5,12,32.4,12,28z M32,12c-8.8,0-16,7.2-16,16c0,7,7.2,10,16,10c8.8,0,16-3,16-10
		C48,19.2,40.8,12,32,12z M23.9,1.3c-0.4-1-1.5-1.6-2.6-1.2c-1,0.4-1.6,1.5-1.2,2.6l0.7,2l3.8-1.4L23.9,1.3z M40.1,1.3l-0.8,2
		l3.7,1.4l0.8-2c0.4-1-0.1-2.2-1.1-2.6C41.7-0.3,40.5,0.3,40.1,1.3z M5.3,19.9l2,0.8l1.4-3.7l-2-0.8c-1-0.4-2.2,0.1-2.6,1.1
		C3.7,18.3,4.3,19.5,5.3,19.9z M59.9,38.7c0.4-1-0.1-2.2-1.1-2.6l-2-0.8l-1.4,3.7l2,0.8C58.3,40.3,59.5,39.7,59.9,38.7z M58.7,19.9
		c1-0.4,1.5-1.6,1.1-2.6s-1.6-1.5-2.6-1.1l-2,0.8l1.4,3.7L58.7,19.9z M7.3,35.4l-2,0.8c-1,0.4-1.5,1.6-1.1,2.6
		c0.4,1,1.6,1.5,2.6,1.1l2-0.8L7.3,35.4z"/>
	<path class="st4" d="M48,28h4c0,4.4-1.4,8.5-3.8,11.8c-0.8,1.3-1.8,2.5-2.6,3.9c-1,1.6-1.6,3.2-1.6,4.3v6.3c0,3-1.7,5.8-4.4,7.2
		l-1.7,0.8l-1.8-3.6l1.7-0.8c1.4-0.7,2.2-2.1,2.2-3.6V48c0-2.3,1.1-4.6,2.2-6.4c0.8-1.4,1.8-2.7,2.7-4.1C46.9,34.8,48,31.4,48,28z"
		/>
</g>
</svg>
