<svg xmlns="http://www.w3.org/2000/svg"  viewBox="0 0 256 256" width="64px" height="64px"><path fill="#478CF7" d="M241.602,194.739V43.378H14.397v151.361c0,5.523,4.477,10,10,10h207.206 C237.125,204.739,241.602,200.262,241.602,194.739z"/><path fill="#377DE2" d="M231.602,43.378v141.361c0,5.523-4.477,10-10,10H14.397c0,5.523,4.477,10,10,10h207.206 c5.523,0,10-4.477,10-10V43.378H231.602z"/><path fill="#2266D3" d="M236.602,43.378v146.361c0,5.523-4.477,10-10,10H19.397c-1.466,0-2.855-0.323-4.11-0.891 c1.569,3.471,5.053,5.891,9.11,5.891h207.206c5.523,0,10-4.477,10-10V43.378H236.602z"/><path fill="#58595B" d="M241.603,13.087v30.292H14.398V13.087c0-5.523,4.477-10,10-10h207.206 C237.126,3.087,241.603,7.564,241.603,13.087z"/><path fill="#414042" d="M235.713,3.977c0.567,1.255,0.89,2.643,0.89,4.109v26.292c0,2.209-1.791,4-4,4H14.398v5h227.206 V13.087C241.603,9.03,239.184,5.546,235.713,3.977z"/><circle cx="88.125" cy="23.233" r="6.912" fill="#91B56B"/><circle cx="63.017" cy="23.233" r="6.912" fill="#F79219"/><circle cx="37.91" cy="23.233" r="6.912" fill="#E63950"/><g><path fill="#5E9CF7" d="M20.396,127.913c-1.104,0-2-0.896-2-2v-68c0-1.104,0.896-2,2-2s2,0.896,2,2v68 C22.396,127.018,21.501,127.913,20.396,127.913z M20.396,51.913c-1.104,0-2-0.896-2-2v-0.535c0-1.104,0.896-2,2-2 s2,0.896,2,2v0.535C22.396,51.018,21.501,51.913,20.396,51.913z"/></g><g><path fill="#FFC91D" d="M148.003,127.782v-20.38c0-2.851-2.311-5.161-5.161-5.161h-29.683c-2.851,0-5.161,2.311-5.161,5.161 v20.38c0,2.851,2.311,5.161,5.161,5.161h29.683C145.692,132.944,148.003,130.633,148.003,127.782z"/><path fill="#FFF" d="M148.003,144.717h-40.006c-1.104,0-2-0.896-2-2s0.896-2,2-2h40.006c1.104,0,2,0.896,2,2 S149.107,144.717,148.003,144.717z"/><path fill="#FFF" d="M148.003,154.758h-40.006c-1.104,0-2-0.896-2-2s0.896-2,2-2h40.006c1.104,0,2,0.896,2,2 S149.107,154.758,148.003,154.758z"/><g><path fill="#FFC91D" d="M88.005,127.782v-20.38c0-2.851-2.311-5.161-5.161-5.161H53.161c-2.851,0-5.161,2.311-5.161,5.161 v20.38c0,2.851,2.311,5.161,5.161,5.161h29.683C85.694,132.944,88.005,130.633,88.005,127.782z"/><path fill="#FFF" d="M88.005,144.717H48c-1.104,0-2-0.896-2-2s0.896-2,2-2h40.005c1.104,0,2,0.896,2,2 S89.109,144.717,88.005,144.717z"/><path fill="#FFF" d="M88.005,154.758H48c-1.104,0-2-0.896-2-2s0.896-2,2-2h40.005c1.104,0,2,0.896,2,2 S89.109,154.758,88.005,154.758z"/><g><path fill="#FFC91D" d="M208,127.782v-20.38c0-2.851-2.311-5.161-5.161-5.161h-29.683c-2.851,0-5.161,2.311-5.161,5.161v20.38 c0,2.851,2.311,5.161,5.161,5.161h29.683C205.689,132.944,208,130.633,208,127.782z"/><path fill="#FFF" d="M208,144.717h-40.005c-1.104,0-2-0.896-2-2s0.896-2,2-2H208c1.104,0,2,0.896,2,2 S209.104,144.717,208,144.717z"/><path fill="#FFF" d="M208,154.758h-40.005c-1.104,0-2-0.896-2-2s0.896-2,2-2H208c1.104,0,2,0.896,2,2 S209.104,154.758,208,154.758z"/></g></g><g><path fill="#6C2BC1" d="M208,87.361v-24.38c0-2.851-2.311-5.161-5.161-5.161H53.161c-2.851,0-5.161,2.311-5.161,5.161v24.38 c0,2.851,2.311,5.161,5.161,5.161h149.677C205.689,92.523,208,90.212,208,87.361z"/></g></g><g><path fill="#D10028" d="M143.938,242.971c1.263,3.547,1.176,6.895,0.353,9.942h21.276c2.761,0,5-2.239,5-5v-75.559 c0-2.761-2.239-5-5-5h-21.276c0.823,3.046,0.911,6.395-0.353,9.941c-2.361,6.627-8.489,11.37-15.519,11.623 c-9.738,0.35-17.742-7.44-17.742-17.1c0-1.547,0.224-3.039,0.609-4.464H90.008c-2.761,0-5,2.239-5,5v21.276 c-1.425-0.385-2.916-0.609-4.464-0.609c-9.661,0-17.452,8.007-17.1,17.746c0.254,7.033,5.001,13.162,11.632,15.519 c3.543,1.259,6.888,1.171,9.932,0.349v21.276c0,2.761,2.239,5,5,5h21.276c-0.385-1.425-0.609-2.917-0.609-4.464 c0-9.66,8.004-17.45,17.742-17.1C135.449,231.601,141.577,236.344,143.938,242.971z"/></g><g><path fill="#B7022D" d="M110.704,247.913H90.008c-2.761,0-5-2.239-5-5v5c0,2.761,2.239,5,5,5h21.276 c-0.385-1.426-0.609-2.917-0.609-4.464C110.676,248.268,110.698,248.093,110.704,247.913z"/></g><g><path fill="#B7022D" d="M165.567,167.354v75.559c0,2.761-2.239,5-5,5h-15.683c0.058,1.738-0.164,3.411-0.593,5h21.276 c2.761,0,5-2.239,5-5v-75.559C170.567,169.593,168.328,167.354,165.567,167.354z"/></g></svg>