<svg width="734" height="598" viewBox="0 0 734 598" fill="none" xmlns="http://www.w3.org/2000/svg">
<path d="M732.336 475.88C729.506 462.72 728.736 449.65 728.926 436.34C729.226 414.76 725.756 393.7 718.786 373.3C714.736 361.45 711.436 349.58 711.756 336.87C711.906 330.77 707.266 325.68 701.466 323.7C694.096 321.19 686.756 318.55 679.476 315.79C657.616 307.5 635.816 299.02 612.776 294.4C610.386 293.92 607.696 294.54 605.616 292.7C594.836 283.19 583.266 274.51 574.576 262.83C574.366 255.86 572.286 249.37 569.536 243.05C571.646 241.52 571.026 240.58 568.876 239.96C568.436 238.93 567.496 238.06 567.606 236.86C567.646 236.66 567.696 236.47 567.736 236.27C567.846 234.84 567.966 233.4 568.146 231.15C572.476 237.55 573.216 244.82 577.186 250.55C576.596 244.25 575.446 238.18 572.286 232.65C570.826 230.09 569.076 227.61 570.896 224.33C576.976 213.36 580.416 201.38 583.916 189.44C584.416 189.21 584.906 188.98 585.406 188.74C593.606 188.94 599.126 183.49 600.536 173.42C601.736 169.67 603.126 165.97 604.086 162.15C606.226 153.61 612.466 146.79 614.016 138.03C615.806 137.79 617.626 135.39 617.406 135.29C614.566 133.99 616.906 127.83 611.636 129.1C611.316 129.18 611.086 129.07 610.936 128.78C611.506 122.28 608.936 116.27 607.996 110C607.996 108.65 607.986 107.31 607.986 105.96C609.546 101.56 610.616 97.1002 609.526 92.4102C609.426 92.0102 609.326 91.6002 609.226 91.2002C611.016 90.5302 610.916 88.9702 610.926 87.5002C610.946 82.4202 610.926 77.3502 610.916 72.2702C610.916 70.6102 610.856 68.9502 609.176 67.9702C606.336 60.7802 602.646 54.0502 598.476 47.5602C592.156 37.7102 586.796 27.1002 576.606 20.3802C572.616 17.7502 568.956 14.4802 564.896 12.1702C558.196 8.35016 550.996 5.11016 542.736 7.45016C540.106 8.19016 537.786 7.23016 535.516 5.47016C533.766 4.12016 532.256 0.930158 529.396 2.59016C526.856 4.06016 525.346 3.20016 523.836 1.42016C522.836 0.240159 521.776 0.450159 520.366 0.430159C511.906 0.350159 503.436 1.09016 494.976 0.170159C492.556 -0.0898414 489.726 -0.169841 487.616 0.810159C477.266 5.61016 465.966 8.32016 456.506 15.1402C451.956 18.4202 447.036 21.2002 442.286 24.2102C437.666 25.1602 435.436 28.5802 433.696 32.5102L433.706 32.7702L433.446 32.8202C431.406 33.5502 430.006 34.8102 429.926 37.1402C429.466 37.7302 428.996 38.3202 428.536 38.9102C418.516 49.1002 414.866 61.9302 413.306 75.6202C413.146 76.0802 412.996 76.5302 412.836 76.9802C406.986 86.8402 405.506 97.7502 405.106 108.92C405.926 107.31 406.356 105.6 406.856 103.91C407.356 102.23 405.686 99.6902 408.766 99.0202C409.236 106.5 409.716 113.99 410.186 121.47C408.966 124.76 412.206 128.01 410.626 131.08C407.286 137.54 410.596 142.27 414.136 147.07C413.966 152.22 411.856 156.99 411.496 162.16C410.736 173.04 408.846 183.93 416.336 193.57C418.596 196.48 419.756 200.07 419.736 203.81C419.726 205.94 419.316 209.15 421.016 209.5C423.746 210.06 423.266 206.65 424.226 204.9C425.586 202.43 425.616 199.86 425.956 197.26C426.286 194.79 426.606 192.31 427.106 189.87C427.366 188.61 427.706 187.02 429.366 186.96C431.406 186.88 430.886 188.72 431.146 189.89C432.076 194.1 432.976 198.32 433.886 202.54C433.826 206.63 435.396 210.07 437.566 213.5C440.606 218.31 445.196 222.31 445.846 228.45C439.886 243.76 433.636 259 434.116 275.91C427.696 280.95 421.786 286.05 412.576 286.54C396.816 287.38 382.236 294.59 366.586 296.73C356.926 298.05 347.306 301.92 337.806 301.5C328.576 301.1 325.436 305.57 322.296 312.15C320.006 316.95 316.976 321.22 313.366 325.25C305.876 333.6 299.566 342.92 297.496 354.18C296.386 360.25 293.496 365.21 289.716 369.5C277.976 382.84 268.306 397.58 261.296 413.76C256.926 423.84 251.686 431.33 241.356 436.61C230.316 442.24 223.836 453.57 217.406 464.1C214.826 468.32 213.356 473.48 210.056 476.94C205.766 481.43 200.056 484.54 195.146 488.48C192.716 490.43 191.086 489.93 189.236 487.86C185.106 483.25 180.406 479.2 175.046 476.17C168.986 472.74 169.216 465.91 166.026 460.96C165.636 460.36 166.146 459.01 166.506 458.12C169.456 450.73 168.346 443.9 163.896 437.46C162.766 435.83 161.806 434.08 160.656 432.46C154.146 423.25 150.386 411.76 141.976 404.46C135.876 399.16 134.226 392.8 131.756 386.36C122.756 362.93 118.316 338.49 117.066 313.52C116.426 300.71 115.306 288.08 111.926 275.68C110.226 269.46 109.846 262.67 107.096 256.99C103.046 248.63 98.7461 240.33 94.4861 232.05C93.4961 230.14 92.1961 228.68 90.2261 228.11C84.0461 226.33 79.4961 222.51 75.7361 217.41C74.7061 216.01 73.5261 213.44 71.0861 214.62C68.8761 215.69 67.9561 218.03 67.8761 220.48C67.7761 223.37 67.8561 226.26 67.8561 229.72C66.3961 228.84 65.6661 228.47 65.0161 228C59.9461 224.31 54.8361 223.15 49.5861 227.66C47.4561 229.49 47.1761 227.19 46.4261 226.15C38.8461 215.65 31.3461 205.09 23.6961 194.64C19.8161 189.34 14.5461 185.47 9.14612 181.88C6.65612 180.23 3.61612 180.18 1.25612 182.26C-1.45388 184.64 0.876119 186.76 2.14612 188.8C7.56612 197.55 13.6461 205.97 18.2661 215.12C22.9261 224.35 28.2061 233.11 33.9661 241.64C35.4561 243.84 36.6561 246.23 38.1561 248.42C39.9661 251.07 40.2061 253.66 38.2161 256.23C33.3361 262.54 32.7261 270.73 28.7461 277.46C27.2461 280 27.5661 282.9 28.6961 285.66C29.1861 286.87 30.0661 288.39 29.7161 289.4C27.2461 296.35 31.3561 300.63 35.8861 304.4C45.6561 312.51 54.1361 321.93 63.1161 330.84C69.8461 337.51 73.2061 346 73.7661 355.44C73.9461 358.48 74.4061 361.37 75.4561 364.19C82.1361 382.13 86.9961 400.58 91.1561 419.24C91.5261 420.88 92.1561 422.36 91.1961 424.03C84.2061 436.25 80.2161 449.57 76.6461 463.08C75.9561 465.68 76.4761 467.13 78.1661 468.74C84.3261 474.59 90.0761 480.84 95.0661 487.71C102.216 497.56 110.216 506.85 112.976 519.34C116.556 535.56 124.346 550.1 132.156 564.6C137.946 575.34 145.546 584.79 152.906 594.43C154.476 596.49 156.446 597.08 158.976 597.06C171.646 596.95 184.316 596.75 196.966 597.12C202.376 597.28 206.966 595.79 210.716 592.38C223.876 580.4 238.746 570.57 252.326 559.13C277.976 537.53 303.906 516.24 328.326 493.21C329.116 492.46 329.786 491.03 331.116 491.58C332.476 492.14 332.046 493.7 331.856 494.7C330.266 503.23 330.266 511.96 330.216 520.48C330.066 544.28 328.926 568.06 328.816 591.87C328.796 596.19 330.246 597.09 334.256 597.07C360.756 596.91 387.256 596.98 413.746 597.02C415.486 597.02 417.456 596.27 418.906 597.98C419.906 597.98 420.906 597.98 421.906 597.98C461.576 597.98 501.236 597.98 540.906 597.98C541.576 597.98 542.236 597.98 542.906 597.98C544.176 596.39 545.966 596.98 547.546 596.98C572.096 596.99 596.646 597.12 621.196 597.06C627.636 597.04 634.116 597.74 640.526 596.51C641.506 596.49 642.006 596.02 642.036 595.02C642.336 584.82 642.646 574.63 642.956 564.43C643.446 565.97 644.396 560.25 644.876 564.6C645.856 573.49 646.926 582.38 646.756 591.32C646.676 595.56 647.826 597.16 652.366 597.12C676.186 596.91 700.006 596.92 723.816 597.13C728.146 597.17 729.046 595.7 728.996 591.7C728.796 576.74 727.506 561.81 727.896 546.83C728.026 541.87 727.556 536.9 727.216 531.93C726.666 524.06 727.146 516.09 729.586 508.38C732.886 497.75 734.636 486.59 732.336 475.88Z" fill="#FEE0A5"/>
</svg>
