<svg width="630" height="654" viewBox="0 0 630 654" fill="none" xmlns="http://www.w3.org/2000/svg">
<path d="M45.4609 0.459717H629.254V652.997L45.4609 644.486V0.459717Z" fill="#331B00"/>
<mask id="mask0_2_473" style="mask-type:alpha" maskUnits="userSpaceOnUse" x="45" y="0" width="585" height="653">
<path d="M45.4609 0.459717H629.254V652.997L45.4609 644.486V0.459717Z" fill="#331B00"/>
</mask>
<g mask="url(#mask0_2_473)">
<path d="M732.662 208.199C669.745 209.626 604.398 203.378 539.619 192.216C547.624 190.815 555.536 189.362 563.422 187.896C706.137 161.306 775.527 134.926 782.964 131.981L711.144 -50.8778C529.593 16.213 154.035 54.0845 73.0215 61.6403L33.6178 227.392L102.571 270.191L2.70767 329.634L38.3732 567.404C38.3732 567.404 69.2965 570.336 125.925 562.45L-87.3808 657.492V734.847H94.9361L672.097 745.111L699.202 593.717L714.459 508.569L662.48 508.886C632.732 508.159 602.905 506.336 573.316 503.589L755.29 476.919L732.662 208.199Z" fill="#FE9925"/>
</g>
<path d="M538.704 441.52C539 431.298 537.498 421.167 537.468 410.965C537.417 397.392 527.692 388.211 521.502 377.488C518.815 372.831 515.546 368.338 511.143 364.968C503.216 358.912 495.259 352.907 487.311 346.881C485.789 345.727 484.359 344.43 484.196 342.408C483.859 338.15 481.857 334.402 480.498 330.501C479.068 326.354 479.538 324.608 484.972 326.13C482.02 318.705 476.351 313.905 473.868 307.145C469.833 296.156 462.662 286.066 465.165 273.372C465.441 271.963 465.012 270.329 464.603 268.889C461.437 257.625 461.62 245.737 458.076 234.534C456.074 228.223 459.925 221.84 458.004 215.457C456.911 211.811 459.445 208.227 458.811 204.785C457.688 198.76 456.421 192.571 453.908 187.046C448.964 176.17 447.186 164.477 444.817 153.069C442.171 140.365 437.768 128.468 432.293 116.938C426.031 103.753 416.184 92.6525 409.768 79.4887C407.562 74.9645 404.671 70.7264 401.719 66.621C395.488 57.9506 387.091 51.6189 378.469 45.4914C365.241 36.0857 350.664 31.2654 334.463 32.7667C329.273 33.2466 324.493 32.5726 319.446 32.0109C312.051 31.1837 304.226 29.5804 297.116 33.6245C295.962 34.2781 294.767 34.8704 293.551 35.4525C292.877 35.7793 292.192 36.0959 291.518 36.4227C291.191 36.5861 290.854 36.7393 290.527 36.9027C287.514 38.3835 284.633 40.0481 282.468 42.6523C281.599 43.694 280.854 44.8888 280.251 46.288C280.006 46.4616 279.761 46.625 279.515 46.7884C278.494 46.7373 277.595 47.013 276.798 47.4624C276.512 47.6258 276.236 47.8096 275.971 48.0139C275.644 48.2692 275.327 48.5653 275.031 48.8717C269.127 54.9481 262.936 60.7896 257.481 67.2541C246.99 79.6725 236.643 92.2134 231.78 108.288C230.289 113.241 229.992 118.265 229.063 123.239C226.816 135.259 221.902 146.666 220.635 158.88C219.675 168.123 217.224 176.824 213.27 185.208C210.226 191.652 208.244 198.474 206.886 205.5C205.824 210.974 204.506 216.428 202.861 221.758C198.06 237.312 196.538 253.192 201.594 268.674C206.048 282.329 206.14 296.013 205.946 309.953C205.905 312.568 204.945 313.762 202.34 313.538C198.275 313.201 194.219 312.731 190.143 312.557C186.18 312.394 182.247 310.362 178.232 312.282C176.884 312.292 175.525 312.312 174.177 312.323C172.103 311.536 170.683 311.097 169.652 311.158C168.446 311.22 167.772 311.945 167.221 313.528C166.986 314.202 166.761 315.039 166.536 316.05C166.158 317.704 165.351 319.338 165.331 320.983C165.29 324.629 163.329 325.966 160.05 326.446C156.403 326.988 153.399 329.091 150.621 331.307C142.868 337.496 133.582 341.111 125.328 346.463C121.263 349.098 117.81 351.651 116.921 356.594C115.992 361.771 113.254 366.05 108.902 368.522C101.394 372.79 95.8168 378.683 91.6082 386.026C88.7377 391.03 85.8979 396.065 83.2624 401.202C81.6893 404.275 79.9119 406.073 76.0608 406.543C70.6774 407.196 65.151 406.583 59.88 408.248C57.2752 409.075 55.038 409.954 55.845 413.487C56.4375 416.071 54.9461 417.184 52.5149 417.49C47.6321 418.083 42.7697 418.787 37.8869 419.4C32.6976 420.054 31.7169 421.473 33.0449 426.406C37.9992 444.758 43.0046 463.089 47.8262 481.482C48.6638 484.678 49.7364 487.926 48.6945 491.449C46.8149 497.791 45.5175 504.307 43.4439 510.577C40.9207 518.216 39.0616 526.294 31.4207 531.145C28.1008 533.249 26.3029 536.935 24.3825 540.377C18.7335 550.467 15.7711 561.741 9.85655 571.76C4.07479 581.564 1.12262 592.287 2.78768 603.919C3.09414 606.053 2.7979 608.351 2.38929 610.506C0.867238 618.584 0.376912 626.662 1.76617 634.791C2.69575 640.255 3.92156 644.34 8.15062 645.739C10.0711 646.372 12.6146 646.454 16.0367 645.861C17.2523 645.872 18.4577 645.882 19.6733 645.892C24.8626 646.209 30.0519 646.433 35.2411 646.29C36.9675 646.239 38.7041 646.157 40.4304 646.015C41.5132 646.004 42.5858 646.015 43.6686 646.035C51.2278 646.168 58.7768 646.842 66.336 646.219C67.1328 647.128 68.1441 647.169 69.1553 647.128C69.4924 647.117 69.8295 647.097 70.1564 647.097C85.806 647.199 101.445 647.148 117.095 647.74C142.418 648.7 167.772 647.761 193.126 648.609C220.063 649.517 247.052 649.007 273.999 650.069C291.671 650.763 309.354 649.865 327.057 650.641C349.448 651.621 371.881 651.039 394.303 651.631C426.082 652.469 457.882 652.408 489.661 653.01C494.339 653.102 496.24 651.764 497.996 647.291C505.3 628.745 508.896 609.137 515.025 590.285C521.052 571.729 523.739 552.703 525.618 533.392C526.405 525.354 528.836 517.46 528.713 509.229C528.693 507.483 529.663 505.614 530.511 503.97C535.752 493.788 536.569 482.421 538.244 471.494C539.776 461.69 538.418 451.508 538.704 441.52Z" fill="#FEE0A5"/>
</svg>
