<svg xmlns="http://www.w3.org/2000/svg"  viewBox="0 0 48 48" width="48px" height="48px"><path fill="#f36" d="M28.875,41.509c-0.037,0.112,0.748-3.066,0.748-3.066l-6.094-0.037l-4.973,0.449l0.262,2.58 C18.817,41.434,28.912,41.397,28.875,41.509z"/><path d="M36.661,38.977c-0.624,0-1.38-0.161-1.803-0.411c-0.338-0.2-0.986-0.865-1.187-1.182c-1.354-2.129-1.104-4.596-0.735-6.508 c0.542-2.807,1.989-5.586,4.426-8.496c0.177-0.211,0.493-0.24,0.704-0.062c0.212,0.177,0.24,0.493,0.062,0.704 c-2.325,2.777-3.702,5.408-4.211,8.044c-0.333,1.73-0.567,3.95,0.598,5.782c0.134,0.211,0.668,0.748,0.853,0.857 c0.34,0.201,1.214,0.334,1.614,0.245c2.143-0.482,3.621-1.091,4.835-2.778c1.435-1.994,2.271-4.302,2.238-6.174 c-0.029-1.653-0.129-3.783-0.324-4.805c-0.848-4.452-2.807-8.336-4.797-11.872c-0.693-1.23-1.744-2.029-2.674-2.68l-0.151-0.107 c-1.019-0.726-2.723-1.94-6.797-0.763c-1.379,0.398-2.666,1.156-3.911,1.889l-0.539,0.317c-1.648,0.959-4.398,1.927-6.828,1.927 c-0.606,0-1.156-0.068-1.737-0.14c-1.436-0.177-2.921-0.36-5.514,0.503c-1.149,0.383-2.174,0.746-3.085,1.31 c-2.509,1.556-4.232,4.612-4.61,8.177c-0.125,1.185-0.089,2.202,0.109,3.108c0.762,3.47,3.935,5.628,5.757,6.606 c1.7,0.912,3.567,1.583,5.373,2.232c1.121,0.403,2.28,0.819,3.399,1.292c1.425,0.603,2.152,0.947,3.108,2.175 c0.169,0.218,0.13,0.532-0.087,0.702c-0.218,0.171-0.532,0.13-0.702-0.087c-0.838-1.078-1.424-1.325-2.708-1.868 c-1.094-0.462-2.24-0.874-3.348-1.272c-1.84-0.662-3.742-1.345-5.507-2.292c-1.974-1.059-5.413-3.411-6.261-7.272 c-0.223-1.013-0.264-2.135-0.127-3.429c0.41-3.869,2.308-7.204,5.077-8.921c1.003-0.622,2.086-1.006,3.296-1.409 c2.809-0.936,4.479-0.73,5.954-0.547c0.55,0.068,1.069,0.132,1.614,0.132c2.231,0,4.842-0.929,6.324-1.792l0.535-0.314 c1.298-0.765,2.641-1.556,4.141-1.989c4.538-1.31,6.565,0.134,7.655,0.909l0.145,0.103c1.095,0.767,2.213,1.663,2.971,3.009 c2.032,3.609,4.033,7.582,4.908,12.174c0.26,1.364,0.327,4.152,0.342,4.975c0.037,2.111-0.847,4.581-2.426,6.776 c-1.393,1.936-3.109,2.648-5.427,3.169C37.044,38.96,36.859,38.977,36.661,38.977z"/><path d="M27.53,38.875c-0.082,0-0.164-0.02-0.241-0.062c-0.242-0.133-0.33-0.437-0.197-0.679c1.196-2.171,3.588-3.263,6.394-2.916 c0.274,0.034,0.469,0.283,0.435,0.557c-0.034,0.273-0.28,0.475-0.557,0.435c-2.388-0.295-4.405,0.605-5.396,2.406 C27.877,38.782,27.707,38.875,27.53,38.875z"/><path d="M17.849,35.417c-0.523,0-1.046-0.026-1.568-0.079c-1.55-0.156-2.705-0.523-3.634-1.156 c-1.148-0.781-2.034-2.04-2.707-3.847c-0.096-0.259,0.036-0.546,0.294-0.643c0.258-0.098,0.546,0.036,0.643,0.294 c0.598,1.606,1.36,2.708,2.332,3.368c0.786,0.535,1.794,0.849,3.172,0.988c3.153,0.319,6.381-0.4,9.093-2.024 c0.982-0.588,1.656-1.162,2.118-1.804c0.557-0.772,0.783-1.656,0.623-2.426c-0.057-0.271,0.117-0.535,0.387-0.591 c0.267-0.058,0.535,0.117,0.591,0.387c0.218,1.044-0.07,2.215-0.79,3.215c-0.545,0.756-1.312,1.416-2.416,2.077 C23.542,34.641,20.701,35.417,17.849,35.417z"/><path d="M9.179,19.634c-0.517,0.242-1.041,0.623-1.14,1.182c-0.08,0.456,0.157,0.924,0.511,1.225s0.809,0.459,1.262,0.567 c1.617,0.386,3.365,0.208,4.87-0.496c0.407-0.191,0.822-0.446,0.999-0.857C16.988,18.21,10.231,19.141,9.179,19.634z"/><path d="M22.847,17.485c0.196-0.553-0.031-1.218-0.343-1.716c-0.297-0.16-0.715-0.05-0.927,0.211 c-0.342,0.421-0.629,2.005-0.576,2.365c0.04,0.276,0.204,0.553,0.468,0.648c0.402,0.145,0.838-0.186,1.006-0.576 C22.66,17.99,22.721,17.816,22.847,17.485z"/><path d="M27.856,16.295c0.111-0.592-0.362-1.227-0.965-1.296c-0.712,0.838-1.025,1.997-0.83,3.076 c0.081,0.45,0.346,0.964,0.807,0.982c0.312,0.012,0.618-0.199,0.756-0.478c0.243-0.493,0.347-1.091,0.269-2.079L27.856,16.295z"/><path d="M39.624,23.769c-0.607,0.086-1.115,1.184-1.466,1.683c-0.679,0.962-1.359,1.924-2.038,2.886 c-0.499,0.707-1.006,1.429-1.265,2.253c-0.318,1.01-0.24,2.095-0.159,3.149c0.033,0.429,0.066,0.857,0.098,1.286 c0.055,0.722,0.265,1.627,0.983,1.76c0.266,0.049,0.539-0.031,0.81-0.02c0.271,0.012,0.579,0.179,0.58,0.447 c2.542-0.634,4.672-2.685,5.386-5.185c0.215-0.755,0.31-1.539,0.524-2.294c0.135-0.473,0.317-0.935,0.393-1.421 c0.099-0.632,0.014-1.276-0.071-1.91c-0.135-1.007-0.175-2.249-0.977-3.031L39.624,23.769z"/><path d="M28.676,42.071c-0.024,0-0.046,0-0.067,0l-9.604-0.114c-0.105-0.001-0.348-0.005-0.546-0.199 c-0.176-0.172-0.204-0.39-0.217-0.494c-0.044-0.363-0.094-0.672-0.136-0.938c-0.126-0.788-0.209-1.309,0.112-1.721 c0.28-0.36,0.745-0.47,1.405-0.53c1.001-0.09,2.167-0.043,3.293,0.003c1.134,0.046,2.306,0.096,3.271-0.002 c0.231-0.023,0.5-0.066,0.788-0.112c0.912-0.145,1.945-0.31,2.709-0.059l0.37,0.121l-0.19,2.791 c-0.017,0.252-0.049,0.721-0.407,1.018C29.195,42.052,28.887,42.071,28.676,42.071z M19.211,40.959l9.409,0.112 c0.046,0,0.173,0.001,0.209-0.013c-0.004-0.008,0.02-0.085,0.035-0.309l0.134-1.963c-0.54-0.049-1.263,0.069-1.868,0.166 c-0.308,0.049-0.597,0.095-0.845,0.12l-0.05-0.498l0.05,0.498c-1.035,0.104-2.242,0.054-3.412,0.006 c-1.094-0.045-2.227-0.092-3.161-0.006c-0.583,0.053-0.692,0.134-0.708,0.149c-0.048,0.097,0.024,0.549,0.088,0.948 C19.129,40.399,19.171,40.661,19.211,40.959z"/></svg>