<svg xmlns="http://www.w3.org/2000/svg"  viewBox="0 0 48 48" width="48px" height="48px"><path fill="#212121" d="M40.965,32.795c0.36,0.304,0.905,0,0.826-0.464c-1.16-6.832-3.916-8.766-5.792-11.581c-2-3-3-4-3-10	s-5-9-9-9s-9,3-9,9s-1,7-3,10c-1.876,2.813-4.63,4.747-5.791,11.574c-0.079,0.467,0.469,0.772,0.83,0.467	c0.407-0.344,0.79-0.631,1.145-0.869C9.841,30.252,11,30.75,11,30.75s-0.325,2.44,1,6c1.438,3.864,4,8,12,8s10.562-4.136,12-8	c1.325-3.56,1-6,1-6s1.313-0.562,2.811,1.169C40.169,32.158,40.554,32.447,40.965,32.795z"/><path fill="#e0e0e0" d="M19,16c0,0-5,5.75-5,15.75c0,5.25,2,11,10,11s10-5.75,10-11c0-10-5-15.75-5-15.75H19z"/><path fill="#f5f5f5" d="M29,16c0,0,2-2.75,2-5c0-2-1.166-4-3.166-4c-1,0-3.38,0.668-2.584,4.75H24h-1.25	C23.547,7.668,21.166,7,20.166,7C18.166,7,17,9,17,11c0,2.25,2,5,2,5c-5,12-4,23,5,23S34,28,29,16z"/><path fill="#ffc107" d="M13,45.75h2l2,1l2-1h2c0,0-1-3-4-3S13,45.75,13,45.75z"/><path fill="#ffc107" d="M27,45.75h2l2,1l2-1h2c0,0-1-3-4-3S27,45.75,27,45.75z"/><path fill="#ffc107" d="M24,10.5c1.135,0,2.5,2,2.5,2s-1.5,0-2.5,1c-1-1-2.5-1-2.5-1S22.865,10.5,24,10.5z"/><circle cx="28" cy="10" r="1" fill="#212121"/><circle cx="20" cy="10" r="1" fill="#212121"/><path fill="#bdbdbd" d="M37,30.75c0,0,1.069,0.005,2.811,1.172C39,26.75,35,23.75,35,23.75S37,27.75,37,30.75z"/><path fill="#bdbdbd" d="M11,30.75c0,0-1.069,0.005-2.811,1.172C9,26.75,13,23.75,13,23.75S11,27.75,11,30.75z"/><path fill="#ffb300" d="M24,10.5v3c1-1,2.5-1,2.5-1S25.135,10.5,24,10.5z"/><path fill="#ffb300" d="M19,45.75h2c0,0-1-3-4-3v4L19,45.75z"/><path fill="#ffb300" d="M33,45.75h2c0,0-1-3-4-3v4L33,45.75z"/></svg>