<svg xmlns="http://www.w3.org/2000/svg"  viewBox="0 0 64 64" width="64px" height="64px"><path fill="#00325A" d="M30,13v5H4v-5c0-0.55,0.45-1,1-1h24C29.55,12,30,12.45,30,13z"/><circle cx="27" cy="15" r="1" fill="#C80A50"/><circle cx="23" cy="15" r="1" fill="#01A0C8"/><circle cx="19" cy="15" r="1" fill="#FAB400"/><path fill="#F0F0F0" d="M14,16H7c-0.553,0-1-0.448-1-1s0.447-1,1-1h7c0.553,0,1,0.448,1,1S14.553,16,14,16z"/><path fill="#00325A" d="M60,13v5H34v-5c0-0.55,0.45-1,1-1h24C59.55,12,60,12.45,60,13z"/><circle cx="57" cy="15" r="1" fill="#C80A50"/><circle cx="53" cy="15" r="1" fill="#01A0C8"/><circle cx="49" cy="15" r="1" fill="#FAB400"/><path fill="#F0F0F0" d="M44,16h-7c-0.553,0-1-0.448-1-1s0.447-1,1-1h7c0.553,0,1,0.448,1,1S44.553,16,44,16z"/><path fill="#01A0C8" d="M30,18v29c0,0.55-0.45,1-1,1H5c-0.55,0-1-0.45-1-1V18H30z"/><path fill="#0082AA" d="M30,18v29c0,0.55-0.45,1-1,1h-4.46c-1.12-0.63-2.15-1.41-3.06-2.31l-2.2,1.27 c-0.48,0.28-1.09,0.12-1.37-0.36l-3-5.2c-0.27-0.48-0.11-1.09,0.37-1.36l2.21-1.28c-0.19-0.74-0.32-1.49-0.4-2.26h-3.51 C13.06,37.39,12.11,38,11,38c-1.66,0-3-1.34-3-3c0-1.66,1.34-3,3-3c1.11,0,2.06,0.61,2.58,1.5h3.51c0.08-0.77,0.21-1.52,0.4-2.26 l-2.21-1.28c-0.48-0.27-0.64-0.88-0.37-1.36l3-5.2c0.28-0.48,0.89-0.64,1.37-0.36l2.2,1.27c1.79-1.76,4.03-3.07,6.52-3.76V18H30z"/><path fill="#C80A50" d="M60,18v29c0,0.55-0.45,1-1,1H35c-0.55,0-1-0.45-1-1V18H60z"/><path fill="#A00028" d="M56,35c0,1.66-1.34,3-3,3c-1.11,0-2.06-0.61-2.58-1.5h-3.51c-0.08,0.77-0.21,1.53-0.4,2.26l2.21,1.28 c0.48,0.27,0.64,0.88,0.37,1.36l-3,5.2c-0.28,0.48-0.89,0.64-1.37,0.36l-2.19-1.26c-0.92,0.9-1.94,1.67-3.06,2.3H35 c-0.55,0-1-0.45-1-1V18h2v2.55c2.49,0.69,4.73,2,6.52,3.76l2.2-1.27c0.48-0.28,1.09-0.12,1.37,0.36l3,5.2 c0.27,0.48,0.11,1.09-0.37,1.36l-2.21,1.28c0.19,0.74,0.32,1.49,0.4,2.26h3.51C50.94,32.61,51.89,32,53,32C54.66,32,56,33.34,56,35 z"/><rect width="8" height="3" x="12" y="32.5" fill="#F0F0F0"/><rect width="8" height="3" x="44" y="32.5" fill="#F0F0F0"/><path fill="#FAB400" d="M48.722,39.036l-2.207-1.274C46.82,36.565,47,35.312,47,34c0-1.3-0.182-2.555-0.492-3.757l2.215-1.279 c0.478-0.276,0.642-0.888,0.366-1.366l-3-5.196c-0.276-0.478-0.888-0.642-1.366-0.366l-2.204,1.273 c-1.791-1.762-4.025-3.065-6.518-3.754V17c0-0.552-0.448-1-1-1h-6c-0.552,0-1,0.448-1,1v2.555 c-2.493,0.688-4.728,1.992-6.518,3.754l-2.204-1.273c-0.478-0.276-1.09-0.112-1.366,0.366l-3,5.196 c-0.276,0.478-0.112,1.09,0.366,1.366l2.215,1.279C17.182,31.445,17,32.7,17,34s0.182,2.555,0.492,3.757l-2.215,1.279 c-0.478,0.276-0.642,0.888-0.366,1.366l3,5.196c0.276,0.478,0.888,0.642,1.366,0.366l2.204-1.273 c1.791,1.762,4.025,3.065,6.518,3.753V51c0,0.552,0.448,1,1,1h6c0.552,0,1-0.448,1-1v-2.556c2.474-0.684,4.724-1.975,6.532-3.745 l2.191,1.265c0.478,0.276,1.09,0.112,1.366-0.366l3-5.196C49.365,39.924,49.201,39.312,48.722,39.036z"/><path fill="#DC9600" d="M43.95,34H43c0,6.292-5.122,11-11,11c-6.054,0-11-4.891-11-11h-0.95C19.281,40.345,24.588,47,32,47 C39.41,47,44.719,40.345,43.95,34z"/><path fill="#F0F0F0" d="M43,34c0,6.09-4.79,10.7-10.45,10.99C32.37,44.99,32.19,45,32,45c-0.38,0-0.76-0.02-1.13-0.06 C25.32,44.38,21,39.7,21,34c0-5.8,4.47-10.54,10.15-10.96C31.43,23.01,31.72,23,32,23s0.57,0.01,0.85,0.04 C38.53,23.46,43,28.2,43,34z"/><path fill="#D2D2D2" d="M32,23c-6.07,0-11,4.905-11,11c0,5.7,4.32,10.38,9.87,10.94C25.89,44.37,22,40.13,22,35 c0-5.51,4.49-10,10-10s10,4.49,10,10c0,5.32-4.19,9.7-9.45,9.99C38.21,44.7,43,40.09,43,34C43,27.905,38.07,23,32,23z"/><path fill="#00325A" d="M27.33,30.793c-0.935,0.192-1.58,1.06-1.58,2.014l0,3.943c0,0.276,0.224,0.5,0.5,0.5h0 c0.276,0,0.5-0.224,0.5-0.5v-2h2v2c0,0.276,0.224,0.5,0.5,0.5l0,0c0.276,0,0.5-0.224,0.5-0.5v-4 C29.75,31.509,28.615,30.53,27.33,30.793z M26.75,33.75v-1c0-0.551,0.448-1,1-1s1,0.449,1,1v1H26.75z"/><path fill="#00325A" d="M32.693,30.75H31.25c-0.276,0-0.5,0.224-0.5,0.5v5.5c0,0.276,0.224,0.5,0.5,0.5h0 c0.276,0,0.5-0.224,0.5-0.5v-2h1c1.24,0,2.22-1.134,1.957-2.419C34.516,31.395,33.647,30.75,32.693,30.75z M32.75,33.75h-1v-2h1 c0.552,0,1,0.449,1,1S33.302,33.75,32.75,33.75z"/><path fill="#00325A" d="M38.25,31.25L38.25,31.25c0-0.276-0.224-0.5-0.5-0.5h-2c-0.276,0-0.5,0.224-0.5,0.5v0 c0,0.276,0.224,0.5,0.5,0.5h0.5v4.5h-0.5c-0.276,0-0.5,0.224-0.5,0.5l0,0c0,0.276,0.224,0.5,0.5,0.5h2c0.276,0,0.5-0.224,0.5-0.5 l0,0c0-0.276-0.224-0.5-0.5-0.5h-0.5v-4.5h0.5C38.026,31.75,38.25,31.526,38.25,31.25z"/><path fill="#D2D2D2" d="M52,32.5v3h-1.95C50.01,35.34,50,35.17,50,35c0-1.05,0.53-1.96,1.34-2.5H52z"/><path fill="#D2D2D2" d="M14,35c0,0.17-0.01,0.34-0.05,0.5H12v-3h0.66C13.47,33.04,14,33.95,14,35z"/><path fill="#01A0C8" d="M44,34h-2c0-5.514-4.486-10-10-10s-10,4.486-10,10h-2c0-6.617,5.383-12,12-12S44,27.383,44,34z"/><path fill="#C80A50" d="M32,46c-6.617,0-12-5.383-12-12h2c0,5.514,4.486,10,10,10s10-4.486,10-10h2C44,40.617,38.617,46,32,46z"/><path fill="#C80A50" d="M36,28.5h-8c-0.276,0-0.5-0.224-0.5-0.5s0.224-0.5,0.5-0.5h8c0.276,0,0.5,0.224,0.5,0.5 S36.276,28.5,36,28.5z"/><path fill="#C80A50" d="M30,30.5c-0.128,0-0.256-0.049-0.354-0.146l-2-2c-0.195-0.195-0.195-0.512,0-0.707l2-2 c0.195-0.195,0.512-0.195,0.707,0s0.195,0.512,0,0.707L28.707,28l1.646,1.646c0.195,0.195,0.195,0.512,0,0.707 C30.256,30.451,30.128,30.5,30,30.5z"/><path fill="#01A0C8" d="M36,40.5h-8c-0.276,0-0.5-0.224-0.5-0.5s0.224-0.5,0.5-0.5h8c0.276,0,0.5,0.224,0.5,0.5 S36.276,40.5,36,40.5z"/><path fill="#01A0C8" d="M34,42.5c-0.128,0-0.256-0.049-0.354-0.146c-0.195-0.195-0.195-0.512,0-0.707L35.293,40l-1.646-1.646 c-0.195-0.195-0.195-0.512,0-0.707s0.512-0.195,0.707,0l2,2c0.195,0.195,0.195,0.512,0,0.707l-2,2 C34.256,42.451,34.128,42.5,34,42.5z"/><path fill="#F0F0F0" d="M58,22.5h-6c-0.276,0-0.5-0.224-0.5-0.5s0.224-0.5,0.5-0.5h6c0.276,0,0.5,0.224,0.5,0.5 S58.276,22.5,58,22.5z"/><path fill="#F0F0F0" d="M58,24.5h-6c-0.276,0-0.5-0.224-0.5-0.5s0.224-0.5,0.5-0.5h6c0.276,0,0.5,0.224,0.5,0.5 S58.276,24.5,58,24.5z"/><path fill="#F0F0F0" d="M58,26.5h-6c-0.276,0-0.5-0.224-0.5-0.5s0.224-0.5,0.5-0.5h6c0.276,0,0.5,0.224,0.5,0.5 S58.276,26.5,58,26.5z"/><path fill="#F0F0F0" d="M58,40.5h-6c-0.276,0-0.5-0.224-0.5-0.5s0.224-0.5,0.5-0.5h6c0.276,0,0.5,0.224,0.5,0.5 S58.276,40.5,58,40.5z"/><path fill="#F0F0F0" d="M58,42.5h-6c-0.276,0-0.5-0.224-0.5-0.5s0.224-0.5,0.5-0.5h6c0.276,0,0.5,0.224,0.5,0.5 S58.276,42.5,58,42.5z"/><path fill="#F0F0F0" d="M58,44.5h-6c-0.276,0-0.5-0.224-0.5-0.5s0.224-0.5,0.5-0.5h6c0.276,0,0.5,0.224,0.5,0.5 S58.276,44.5,58,44.5z"/><g><path fill="#F0F0F0" d="M12,22.5H6c-0.276,0-0.5-0.224-0.5-0.5s0.224-0.5,0.5-0.5h6c0.276,0,0.5,0.224,0.5,0.5 S12.276,22.5,12,22.5z"/><path fill="#F0F0F0" d="M12,24.5H6c-0.276,0-0.5-0.224-0.5-0.5s0.224-0.5,0.5-0.5h6c0.276,0,0.5,0.224,0.5,0.5 S12.276,24.5,12,24.5z"/><path fill="#F0F0F0" d="M12,26.5H6c-0.276,0-0.5-0.224-0.5-0.5s0.224-0.5,0.5-0.5h6c0.276,0,0.5,0.224,0.5,0.5 S12.276,26.5,12,26.5z"/></g><g><path fill="#F0F0F0" d="M12,40.5H6c-0.276,0-0.5-0.224-0.5-0.5s0.224-0.5,0.5-0.5h6c0.276,0,0.5,0.224,0.5,0.5 S12.276,40.5,12,40.5z"/><path fill="#F0F0F0" d="M12,42.5H6c-0.276,0-0.5-0.224-0.5-0.5s0.224-0.5,0.5-0.5h6c0.276,0,0.5,0.224,0.5,0.5 S12.276,42.5,12,42.5z"/><path fill="#F0F0F0" d="M12,44.5H6c-0.276,0-0.5-0.224-0.5-0.5s0.224-0.5,0.5-0.5h6c0.276,0,0.5,0.224,0.5,0.5 S12.276,44.5,12,44.5z"/></g><g><circle cx="53" cy="34" r="3" fill="#00325A"/></g><g><circle cx="53" cy="34" r="1" fill="#F0F0F0"/></g><g><circle cx="11" cy="34" r="3" fill="#00325A"/></g><g><circle cx="11" cy="34" r="1" fill="#F0F0F0"/></g></svg>