<svg xmlns="http://www.w3.org/2000/svg"  viewBox="0 0 256 256" width="64px" height="64px"><path fill="#3a312a" d="M190.374,188.053L67.114,64.793c-0.586-0.586-1.535-0.586-2.121,0c-0.586,0.585-0.586,1.536,0,2.121 l123.26,123.259c0.293,0.293,0.677,0.439,1.061,0.439s0.768-0.146,1.061-0.439C190.96,189.588,190.96,188.638,190.374,188.053z"/><path fill="#d7e057" d="M47.854,26.345c-0.974,11.564-13.025,13.39-13.025,13.39c10.347,0.487,12.925,14.059,12.925,14.059 c0.221-9.677,13.321-14.202,13.321-14.202C51.262,39.004,47.854,26.345,47.854,26.345z"/><path fill="#3a312a" d="M61.166,38.094C52.561,37.58,49.333,26.07,49.302,25.954c-0.19-0.702-0.845-1.164-1.584-1.102 c-0.725,0.066-1.298,0.642-1.359,1.367c-0.859,10.215-11.313,11.964-11.754,12.033c-0.763,0.115-1.313,0.79-1.273,1.561 c0.04,0.77,0.657,1.384,1.428,1.421c9.028,0.425,11.499,12.718,11.522,12.842c0.138,0.711,0.76,1.217,1.473,1.217 c0.042,0,0.084-0.001,0.126-0.005c0.765-0.064,1.357-0.693,1.375-1.459c0.193-8.509,12.191-12.777,12.313-12.819 c0.676-0.235,1.092-0.914,0.994-1.623S61.88,38.137,61.166,38.094z M47.6,48.44c-1.356-3.13-3.709-6.907-7.587-8.876 c2.931-1.405,6.408-3.913,8.201-8.272c1.551,3.071,4.2,6.88,8.335,8.722C53.541,41.653,49.626,44.419,47.6,48.44z"/><path fill="#d7e057" d="M26.155,43.326c-0.689,8.179-9.212,9.47-9.212,9.47c7.318,0.344,9.142,9.944,9.142,9.944 c0.156-6.844,9.422-10.045,9.422-10.045C28.566,52.28,26.155,43.326,26.155,43.326z"/><path fill="#3a312a" d="M35.597,51.198c-5.766-0.345-7.972-8.186-7.994-8.265c-0.189-0.702-0.869-1.158-1.581-1.102 c-0.726,0.065-1.3,0.643-1.361,1.368c-0.578,6.871-7.646,8.067-7.942,8.114c-0.763,0.115-1.313,0.79-1.273,1.561 c0.04,0.77,0.657,1.384,1.428,1.421c6.035,0.284,7.724,8.644,7.739,8.726c0.136,0.713,0.759,1.22,1.473,1.22 c0.041,0,0.083-0.001,0.125-0.005c0.765-0.063,1.358-0.694,1.376-1.461c0.13-5.709,8.331-8.634,8.412-8.662 c0.676-0.234,1.093-0.913,0.996-1.622C36.896,51.782,36.311,51.241,35.597,51.198z M26.012,57.993 c-0.924-1.885-2.34-3.947-4.447-5.28c1.856-1.041,3.698-2.63,4.871-4.916c1.058,1.874,2.654,3.954,4.941,5.223 C29.527,54.121,27.388,55.76,26.012,57.993z"/><path fill="#d7e057" d="M26.155,16.668c-0.689,8.179-9.212,9.471-9.212,9.471c7.318,0.344,9.142,9.944,9.142,9.944 c0.156-6.845,9.422-10.045,9.422-10.045C28.566,25.622,26.155,16.668,26.155,16.668z"/><path fill="#3a312a" d="M35.597,24.54c-5.766-0.345-7.972-8.185-7.994-8.264c-0.189-0.702-0.869-1.158-1.581-1.102 c-0.726,0.065-1.3,0.643-1.361,1.368c-0.578,6.871-7.646,8.067-7.942,8.114c-0.763,0.115-1.313,0.79-1.273,1.561 c0.04,0.77,0.657,1.384,1.428,1.421c6.035,0.284,7.724,8.644,7.739,8.726c0.136,0.712,0.759,1.22,1.473,1.22 c0.041,0,0.083-0.001,0.125-0.005c0.765-0.063,1.358-0.694,1.376-1.461c0.13-5.709,8.331-8.634,8.412-8.662 c0.676-0.234,1.093-0.913,0.996-1.622C36.896,25.125,36.311,24.583,35.597,24.54z M26.012,31.335 c-0.924-1.886-2.34-3.947-4.447-5.28c1.856-1.041,3.698-2.63,4.871-4.917c1.058,1.874,2.654,3.955,4.941,5.224 C29.527,27.463,27.388,29.103,26.012,31.335z"/><path fill="#3a312a" d="M127.942,30.647c-0.828,0-1.5,0.671-1.5,1.5v192c0,0.829,0.672,1.5,1.5,1.5s1.5-0.671,1.5-1.5v-192 C129.442,31.318,128.771,30.647,127.942,30.647z"/><path fill="#3a312a" d="M190.374,65.312c-0.586-0.586-1.535-0.586-2.121,0L64.993,188.571c-0.586,0.585-0.586,1.536,0,2.121 c0.293,0.293,0.677,0.439,1.061,0.439s0.768-0.146,1.061-0.439l123.26-123.259C190.96,66.848,190.96,65.897,190.374,65.312z"/><path fill="#3a312a" d="M223.942,126.647h-192c-0.828,0-1.5,0.671-1.5,1.5s0.672,1.5,1.5,1.5h192c0.828,0,1.5-0.671,1.5-1.5 S224.771,126.647,223.942,126.647z"/><path fill="#ef6d7a" d="M139.071,16.677h-22.256c-3.531,0-6.393,2.862-6.393,6.393v22.684c0,3.531,2.862,6.393,6.393,6.393h22.256 c3.531,0,6.393-2.862,6.393-6.393V23.07C145.464,19.539,142.601,16.677,139.071,16.677z"/><path fill="#3a312a" d="M139.07,15.177h-22.256c-4.352,0-7.893,3.541-7.893,7.893v22.684c0,4.352,3.541,7.893,7.893,7.893h22.256 c4.353,0,7.894-3.541,7.894-7.893V23.07C146.964,18.718,143.423,15.177,139.07,15.177z M143.964,45.754 c0,2.698-2.195,4.893-4.894,4.893h-22.256c-2.698,0-4.893-2.195-4.893-4.893V23.07c0-2.698,2.194-4.893,4.893-4.893h22.256 c2.698,0,4.894,2.195,4.894,4.893V45.754z"/><path fill="#ef6d7a" d="M45.071,110.677H22.815c-3.531,0-6.393,2.862-6.393,6.393v22.684c0,3.531,2.862,6.393,6.393,6.393h22.256 c3.531,0,6.393-2.862,6.393-6.393V117.07C51.464,113.539,48.601,110.677,45.071,110.677z"/><path fill="#3a312a" d="M45.07,109.177H22.814c-4.352,0-7.893,3.541-7.893,7.893v22.684c0,4.352,3.541,7.893,7.893,7.893H45.07 c4.353,0,7.894-3.541,7.894-7.893V117.07C52.964,112.718,49.423,109.177,45.07,109.177z M49.964,139.754 c0,2.698-2.195,4.893-4.894,4.893H22.814c-2.698,0-4.893-2.195-4.893-4.893V117.07c0-2.698,2.194-4.893,4.893-4.893H45.07 c2.698,0,4.894,2.195,4.894,4.893V139.754z"/><path fill="#ef6d7a" d="M233.071,110.677h-22.256c-3.531,0-6.393,2.862-6.393,6.393v22.684c0,3.531,2.862,6.393,6.393,6.393h22.256 c3.531,0,6.393-2.862,6.393-6.393V117.07C239.464,113.539,236.601,110.677,233.071,110.677z"/><path fill="#3a312a" d="M233.07,109.177h-4.232c-0.828,0-1.5,0.671-1.5,1.5s0.672,1.5,1.5,1.5h4.232 c2.698,0,4.894,2.195,4.894,4.893v22.684c0,2.698-2.195,4.893-4.894,4.893h-22.256c-2.698,0-4.893-2.195-4.893-4.893V117.07 c0-2.698,2.194-4.893,4.893-4.893h5.233c0.828,0,1.5-0.671,1.5-1.5s-0.672-1.5-1.5-1.5h-5.233c-4.352,0-7.893,3.541-7.893,7.893 v22.684c0,4.352,3.541,7.893,7.893,7.893h22.256c4.353,0,7.894-3.541,7.894-7.893V117.07 C240.964,112.718,237.423,109.177,233.07,109.177z"/><path fill="#ef6d7a" d="M139.071,203.677h-22.256c-3.531,0-6.393,2.862-6.393,6.393v22.684c0,3.531,2.862,6.393,6.393,6.393h22.256 c3.531,0,6.393-2.862,6.393-6.393V210.07C145.464,206.539,142.601,203.677,139.071,203.677z"/><path fill="#3a312a" d="M139.07,202.177h-22.256c-4.352,0-7.893,3.541-7.893,7.893v22.684c0,4.352,3.541,7.893,7.893,7.893h22.256 c4.353,0,7.894-3.541,7.894-7.893V210.07C146.964,205.718,143.423,202.177,139.07,202.177z M143.964,232.754 c0,2.698-2.195,4.893-4.894,4.893h-22.256c-2.698,0-4.893-2.195-4.893-4.893V210.07c0-2.698,2.194-4.893,4.893-4.893h22.256 c2.698,0,4.894,2.195,4.894,4.893V232.754z"/><path fill="#fae6ca" d="M147.018,98.677h-38.15c-5.544,0-10.039,4.495-10.039,10.039v38.862c0,5.544,4.495,10.039,10.039,10.039 h38.15c5.544,0,10.039-4.495,10.039-10.039v-38.862C157.057,103.172,152.562,98.677,147.018,98.677z"/><path fill="#3a312a" d="M147.018,97.177h-38.149c-6.362,0-11.539,5.176-11.539,11.539v2.805c0,0.829,0.672,1.5,1.5,1.5 s1.5-0.671,1.5-1.5v-2.805c0-4.708,3.831-8.539,8.539-8.539h38.149c4.708,0,8.539,3.831,8.539,8.539v38.862 c0,4.708-3.831,8.539-8.539,8.539h-38.149c-4.708,0-8.539-3.831-8.539-8.539v-22.805c0-0.829-0.672-1.5-1.5-1.5 s-1.5,0.671-1.5,1.5v22.805c0,6.363,5.177,11.539,11.539,11.539h38.149c6.362,0,11.539-5.176,11.539-11.539v-38.862 C158.557,102.353,153.38,97.177,147.018,97.177z"/><path fill="#8ac5dc" d="M199.264,56.422c-6.239-6.239-16.354-6.239-22.593,0c-6.239,6.239-6.239,16.354,0,22.593 c6.239,6.239,16.354,6.239,22.593,0S205.502,62.661,199.264,56.422z"/><path fill="#3a312a" d="M200.324,55.361c-6.815-6.814-17.902-6.813-24.714,0c-6.813,6.814-6.813,17.9,0,24.714 c3.407,3.407,7.882,5.11,12.356,5.11c4.476,0,8.95-1.703,12.357-5.11C207.138,73.261,207.138,62.175,200.324,55.361z M198.203,77.954c-5.643,5.642-14.825,5.644-20.472,0c-5.644-5.644-5.644-14.827,0-20.472c2.822-2.822,6.528-4.232,10.236-4.232 c3.706,0,7.414,1.411,10.235,4.232C203.847,63.126,203.847,72.31,198.203,77.954z"/><path fill="#8ac5dc" d="M79.214,176.471c-6.239-6.239-16.354-6.239-22.593,0c-6.239,6.239-6.239,16.354,0,22.593 c6.239,6.239,16.354,6.239,22.593,0C85.453,192.825,85.453,182.71,79.214,176.471z"/><path fill="#3a312a" d="M80.275,175.411c-3.301-3.301-7.689-5.119-12.357-5.119s-9.057,1.818-12.356,5.119 c-3.301,3.3-5.119,7.689-5.119,12.357s1.818,9.057,5.119,12.357c3.3,3.301,7.688,5.119,12.356,5.119s9.057-1.818,12.357-5.119 C87.089,193.311,87.089,182.224,80.275,175.411z M78.154,198.003c-2.734,2.734-6.369,4.24-10.236,4.24 c-3.866,0-7.501-1.506-10.235-4.24c-2.734-2.734-4.24-6.369-4.24-10.236s1.506-7.501,4.24-10.236 c2.734-2.734,6.369-4.24,10.235-4.24c3.867,0,7.502,1.506,10.236,4.24C83.798,183.176,83.798,192.359,78.154,198.003z"/><circle cx="187.967" cy="187.768" r="15.975" fill="#8ac5dc"/><path fill="#3a312a" d="M200.324,175.411c-6.815-6.814-17.902-6.813-24.714,0c-6.813,6.814-6.813,17.9,0,24.714 c3.407,3.407,7.882,5.11,12.356,5.11c4.476,0,8.95-1.703,12.357-5.11C207.138,193.312,207.138,182.225,200.324,175.411z M198.203,198.003c-5.646,5.645-14.828,5.643-20.472,0c-5.644-5.644-5.644-14.827,0-20.472c5.643-5.642,14.827-5.644,20.472,0 C203.847,183.176,203.847,192.36,198.203,198.003z"/><path fill="#8ac5dc" d="M79.214,56.422c-6.239-6.239-16.354-6.239-22.593,0c-6.239,6.239-6.239,16.354,0,22.593 c6.239,6.239,16.354,6.239,22.593,0C85.453,72.776,85.453,62.661,79.214,56.422z"/><path fill="#3a312a" d="M80.275,55.362c-3.301-3.301-7.689-5.119-12.357-5.119s-9.057,1.818-12.356,5.119 c-3.301,3.3-5.119,7.689-5.119,12.356c0,4.668,1.818,9.057,5.119,12.357c3.3,3.301,7.688,5.119,12.356,5.119 s9.057-1.818,12.357-5.119C87.089,73.261,87.089,62.175,80.275,55.362z M78.154,77.954c-2.734,2.734-6.369,4.24-10.236,4.24 c-3.866,0-7.501-1.506-10.235-4.24c-2.734-2.734-4.24-6.369-4.24-10.236c0-3.866,1.506-7.501,4.24-10.235s6.369-4.24,10.235-4.24 s7.502,1.505,10.236,4.24C83.798,63.126,83.798,72.31,78.154,77.954z"/><polygon fill="#3a312a" points="120.443,119.954 105.443,126.188 105.443,130.104 120.443,136.326 120.443,131.669 111.327,128.154 120.443,124.64"/><polygon fill="#3a312a" points="128.033,118.147 123.202,138.147 127.917,138.147 132.775,118.147"/><polygon fill="#3a312a" points="135.443,119.954 135.443,124.64 144.559,128.154 135.443,131.669 135.443,136.326 150.443,130.104 150.443,126.188"/><path fill="#decaad" d="M147.023,100.177h-15c4.7,0,8.53,3.83,8.53,8.54v13.36l9.89,4.11v3.92l-9.89,4.1v13.37 c0,4.71-3.83,8.54-8.53,8.54h15c4.7,0,8.53-3.83,8.53-8.54v-38.86C155.553,104.007,151.723,100.177,147.023,100.177z"/></svg>