<?xml version="1.0" encoding="utf-8"?>
<!-- Generator: Adobe Illustrator 21.1.0, SVG Export Plug-In . SVG Version: 6.00 Build 0)  -->
<svg version="1.1" id="Layer_1" xmlns="http://www.w3.org/2000/svg" xmlns:xlink="http://www.w3.org/1999/xlink" x="0px" y="0px"
	 viewBox="0 0 64 64" style="enable-background:new 0 0 64 64;" xml:space="preserve">
<style type="text/css">
	.st0{fill:#FFFFFF;}
	.st1{fill:#ACBDC5;}
	.st2{fill-rule:evenodd;clip-rule:evenodd;fill:#314A52;}
	.st3{fill:#FF6C58;}
	.st4{fill:#FACC2E;}
	.st5{fill:#FFF200;}
</style>
<g id="Diploma">
	<rect x="3" y="15" class="st0" width="48" height="18"/>
	<path class="st1" d="M5.5,18.4C4.6,20.2,4,22.9,4,26c0,0.7,0,1.4,0.1,2.1c0.4,2.1,6.8,3.7,14.8,3.9c1.4,0,2.8,0,4.2-0.1
		c13.5-0.7,24.1-5.7,25.6-11.9l7.2-5c2.8,0,5,4.9,5,11c0,6.1-2.2,11-5,11l-26,1c-4.1,0-8.1,0.5-11.9,1c-0.4,0.1-0.8,0.1-1.2,0.2l0,0
		C13.7,39.6,10.6,40,8,40c-2.8,0-4.8-2.2-6-4.6c-1.3-2.5-2-5.8-2-9.4c0-3.6,0.7-6.9,2-9.4C3.2,14.2,5.2,12,8,12
		c2.6,0,5.7,0.4,8.9,0.9c0.4,0.1,0.8,0.1,1.2,0.2c3.7,0.5,7.8,1,11.9,1v4c-4.4,0-8.6-0.5-12.4-1c-0.4-0.1-0.8-0.1-1.2-0.2l0,0
		C13.1,16.4,10.3,16,8,16C7.5,16,6.5,16.5,5.5,18.4z"/>
	<path class="st2" d="M56,16c-0.5,0-1.5,0.5-2.5,2.4C52.6,20.2,52,22.9,52,26c0,3.1,0.6,5.8,1.5,7.6c1,2,2,2.4,2.5,2.4
		c0.5,0,1.5-0.5,2.5-2.4c0.9-1.8,1.5-4.5,1.5-7.6c0-3.1-0.6-5.8-1.5-7.6C57.5,16.5,56.5,16,56,16z M44.3,17c-4.7,0.5-10,1-14.3,1v-4
		c4.1,0,9.2-0.5,13.9-1c0.5-0.1,1-0.1,1.5-0.2c4.1-0.4,8-0.8,10.5-0.8c2.8,0,4.8,2.2,6,4.6c1.3,2.5,2,5.8,2,9.4c0,3.6-0.7,6.9-2,9.4
		c-1.2,2.4-3.2,4.6-6,4.6c-2.6,0-6.4-0.4-10.5-0.8c-0.4,0-0.8-0.1-1.2-0.1c-4.9-0.5-10.1-1-14.3-1v-4c4.5,0,9.9,0.5,14.7,1.1
		c0.4,0,0.7,0.1,1.1,0.1c1.5,0.2,2.9,0.3,4.3,0.4c0-0.1-0.1-0.2-0.1-0.2c-1.3-2.5-2-5.8-2-9.4c0-3.6,0.7-6.9,2-9.4
		c0-0.1,0.1-0.2,0.1-0.2c-1.3,0.1-2.7,0.3-4.2,0.4C45.3,16.9,44.8,16.9,44.3,17z"/>
	<path class="st3" d="M24,26l-2.3,8l-5.6,14.9c0,0.1-0.1,0.2-0.1,0.3c0,0.4,0.3,0.8,0.8,0.8H20l2.3,1.8c0.1,0.1,0.3,0.2,0.5,0.2
		c0.3,0,0.6-0.2,0.7-0.5l2.5-6.6l2.5,6.6c0.1,0.3,0.4,0.5,0.7,0.5c0.2,0,0.4-0.1,0.5-0.2L32,50h3.2c0.4,0,0.8-0.3,0.8-0.8
		c0-0.1,0-0.2-0.1-0.3L31.8,38L32,26c0-6.2,1.6-11.3,3.6-11.9c0.2-0.1,0.4-0.2,0.4-0.5c0-0.9-0.7-1.6-1.6-1.6H30
		C26.7,12,24,18.3,24,26z"/>
	<circle class="st4" cx="26" cy="34" r="10"/>
	<path class="st5" d="M32,34c0,3.3-2.7,4-6,4c-3.3,0-6-0.7-6-4c0-3.3,2.7-6,6-6C29.3,28,32,30.7,32,34z"/>
</g>
</svg>
