<svg xmlns="http://www.w3.org/2000/svg"  viewBox="0 0 48 48" width="48px" height="48px"><path fill="#8d6e63" d="M23.444,27h-9.63C11.155,27,9,24.948,9,22.417V9.583C9,7.052,11.155,5,13.815,5h9.63 C29.817,5,35,9.935,35,16S29.817,27,23.444,27z M19,19h5c1.103,0,2-0.897,2-2s-0.897-2-2-2h-5V19z"/><path fill="#8d6e63" d="M26,43H14c-2.762,0-5-2.238-5-5V24c0-2.761,2.238-5,5-5h12c6.617,0,12,5.383,12,12 C38,37.617,32.617,43,26,43z M19,33h7c1.103,0,2-0.897,2-2s-0.897-2-2-2h-7V33z"/><rect width="10" height="7" x="17" y="14" fill="#8d6e63"/><circle cx="10" cy="7" r="4" fill="#8d6e63"/><path fill="#bcaaa4" d="M25,38h-4c-4.418,0-8-3.582-8-8v0c0-4.418,3.582-8,8-8h4c4.418,0,8,3.582,8,8v0 C33,34.418,29.418,38,25,38z"/><circle cx="33" cy="7" r="4" fill="#8d6e63"/><path fill="#212121" d="M24.5,25h-3c-1.381,0-2.5-1.119-2.5-2.5v0c0-1.381,1.119-2.5,2.5-2.5h3c1.381,0,2.5,1.119,2.5,2.5v0 C27,23.881,25.881,25,24.5,25z"/><circle cx="18.5" cy="14.5" r="3.5" fill="#fff"/><circle cx="20.5" cy="14.5" r="1.5" fill="#212121"/><circle cx="27.5" cy="14.5" r="3.5" fill="#fff"/><circle cx="29.5" cy="14.5" r="1.5" fill="#212121"/><path fill="#6d4c41" d="M21.755,33l4.131,0c0.997,0,1.923-0.678,2.085-1.662C28.179,30.087,27.214,29,26,29h-7v1.245 C19,31.766,20.234,33,21.755,33z"/></svg>