<svg xmlns="http://www.w3.org/2000/svg"  viewBox="0 0 48 48" width="48px" height="48px"><path fill="#4e342e" d="M34.843,39.841l0.984,0.003c1.168,0,2.277,0.484,3.043,1.328c0.37,0.407,0.342,1.04-0.068,1.412 c-0.409,0.371-1.041,0.341-1.412-0.068c-0.447-0.492-0.996-0.623-1.347-0.657c0.792,0.799,1.24,1.875,1.209,2.975 c-0.015,0.552-0.473,0.988-1.025,0.975c-0.543-0.014-0.975-0.459-0.975-1c0-0.008,0-0.017,0-0.025 c0.021-0.636-0.267-1.106-0.496-1.379c-0.173,0.85-0.603,1.627-1.242,2.207c-0.409,0.371-1.041,0.341-1.412-0.068 c-0.174-0.191-0.26-0.432-0.26-0.672c0-0.271,0.11-0.543,0.328-0.74c0.606-0.551,0.672-1.276,0.672-1.565v-1.721v-4h2V39.841z"/><path fill="#4e342e" d="M13.13,39.841l-0.984,0.003c-1.168,0-2.277,0.484-3.043,1.328c-0.37,0.407-0.342,1.04,0.068,1.412 c0.409,0.371,1.041,0.341,1.412-0.068c0.447-0.492,0.996-0.623,1.347-0.657c-0.792,0.799-1.24,1.875-1.209,2.975 c0.015,0.552,0.473,0.988,1.025,0.975c0.543-0.014,0.975-0.459,0.975-1c0-0.008,0-0.017,0-0.025 c-0.021-0.636,0.267-1.106,0.496-1.379c0.173,0.85,0.603,1.627,1.242,2.207c0.409,0.371,1.041,0.341,1.412-0.068 c0.174-0.191,0.26-0.432,0.26-0.672c0-0.271-0.11-0.543-0.328-0.74c-0.606-0.551-0.672-1.276-0.672-1.565v-1.721v-4h-2V39.841z"/><path fill="#8d6e63" d="M24,44C13.523,44,5,35.477,5,25v-2C5,12.523,13.523,4,24,4s19,8.523,19,19v2 C43,35.477,34.477,44,24,44z M24,14c-4.963,0-9,4.037-9,9v2c0,4.963,4.037,9,9,9s9-4.037,9-9v-2C33,18.037,28.963,14,24,14z"/><path fill="#8d6e63" d="M9,4h15l-9,5C12.204,8.49,10.328,6.644,9,4z"/><path fill="#8d6e63" d="M39,4H24l9,5C35.796,8.49,37.672,6.644,39,4z"/><polygon fill="#ffc107" points="24,16 21,18.333 24,23 27,18.333"/><circle cx="19.5" cy="13.5" r="5.5" fill="#4e342e"/><circle cx="28.5" cy="13.5" r="5.5" fill="#4e342e"/><circle cx="19.5" cy="13.5" r="3.5" fill="#fff"/><circle cx="28.5" cy="13.5" r="3.5" fill="#fff"/><circle cx="19.5" cy="13.5" r="1.5" fill="#212121"/><circle cx="28.5" cy="13.5" r="1.5" fill="#212121"/><path fill="#4e342e" d="M5.376,28.706c0.146,0.735,0.338,1.452,0.567,2.153C8.025,29.211,10,26.678,10,23v-4 C8.67,25.989,6.29,27.813,5.376,28.706z"/><path fill="#4e342e" d="M42.056,30.859c0.229-0.702,0.421-1.419,0.567-2.153C41.747,27.899,38.926,25.032,38,19v4 C38,26.678,39.975,29.211,42.056,30.859z"/></svg>