<svg xmlns="http://www.w3.org/2000/svg"  viewBox="0 0 48 48" width="48px" height="48px"><path fill="#ffc400" d="M39,14c-2.027-4.355-8-8-13-8l-0.006,0.05C25.83,6.032,25.669,6,25.5,6h-12C11.015,6,9,8.015,9,10.5 s2.015,4.5,4.5,4.5H25c3,0,8,1,11,3C37.861,19.24,40.521,17.269,39,14z"/><path fill="#ff8a80" d="M14,43c-2.761,0-5-2.238-5-5V10c0-2.762,2.239-5,5-5s5,2.238,5,5v28C19,40.762,16.761,43,14,43z"/><circle cx="14" cy="12" r="7" fill="#ff8a80"/><path fill="#ff8a80" d="M24,32c3.373,0,6-2.189,6-5c0,0-2.313,0-4,0c4-1,6-2.751,6-5c0,0-2.627,1-6,1c0,0-2.627,0-6,0 c0,0-2.499,4.241-1.273,6.63C19.952,32.019,24,32,24,32z"/><circle cx="16" cy="11" r="2" fill="#fff"/><circle cx="17" cy="11" r="1" fill="#212121"/><rect width="10" height="9" x="14" y="23" fill="#ff8a80"/><polygon fill="#e57373" points="18.989,21.266 14,23 18.989,22.989"/><path fill="#757575" d="M39,14c-1.158-2.489-3.607-4.742-6.424-6.219c-1.207,3.284-3.226,5.648-5.855,7.319 c2.956,0.285,6.796,1.244,9.28,2.9C37.861,19.24,40.521,17.269,39,14z"/><path fill="#ff8a80" d="M6,5h8l-3,4C11,9,8,10,6,5z"/></svg>