<?xml version="1.0" encoding="utf-8"?>
<!-- Generator: Adobe Illustrator 21.1.0, SVG Export Plug-In . SVG Version: 6.00 Build 0)  -->
<svg version="1.1" id="Layer_1" xmlns="http://www.w3.org/2000/svg" xmlns:xlink="http://www.w3.org/1999/xlink" x="0px" y="0px"
	 viewBox="0 0 64 64" style="enable-background:new 0 0 64 64;" xml:space="preserve">
<style type="text/css">
	.st0{fill:#FFFFFF;}
	.st1{fill:#ACBDC5;}
	.st2{fill:#597380;}
	.st3{fill:#314A52;}
</style>
<g id="Plane">
	<polygon class="st0" points="8,37 3,15 9,15 13,23 51,23 63,37 	"/>
	<path class="st1" d="M2,12c-0.6,0-1.2,0.3-1.5,0.7c-0.4,0.5-0.5,1.1-0.4,1.7l3.7,18.8c0.3,1.5,1,3,2.4,4C9.2,39.6,17.2,44,32,44h16
		l13-5v-7h-4.6c0.1,0.1,0.1,0.2,0.1,0.4c0,2-8.3,3.6-18.5,3.6H26v0c-0.2,0-0.3,0-0.5,0C16,36,8.2,33.5,7.2,30.2L4.4,16H8l5.3,10.4
		l3.6-1.8L11,13.1c-0.3-0.7-1-1.1-1.8-1.1H2z"/>
	<path class="st2" d="M23.1,22l-6.8-8.4C15.7,13,16.2,12,17,12h5.6c0.9,0,1.9,0.2,2.7,0.6L44,22H23.1z M20,31c0,0.6,0.4,1,1,1h2
		c0.6,0,1-0.4,1-1v-2c0-0.6-0.4-1-1-1h-2c-0.6,0-1,0.4-1,1V31z M29,28c-0.6,0-1,0.4-1,1v2c0,0.6,0.4,1,1,1h2c0.6,0,1-0.4,1-1v-2
		c0-0.6-0.4-1-1-1H29z M36,31c0,0.6,0.4,1,1,1h2c0.6,0,1-0.4,1-1v-2c0-0.6-0.4-1-1-1h-2c-0.6,0-1,0.4-1,1V31z M48,31
		c0,0.6,0.4,1,1,1h8v-4h-8c-0.6,0-1,0.4-1,1V31z M25.9,36c-1.2,0-2.3,0.5-3.1,1.5L12.2,50.4C11.7,51,12.1,52,13,52h9.3
		c1.1,0,2.2-0.3,3.1-0.9l17.1-10.3c0.9-0.5,1.5-1.5,1.5-2.6V38c0-1.1-0.9-2-2-2H25.9z"/>
	<path class="st3" d="M16.5,24h30.9c3,0,5.7,1.7,7.1,4.3l1.9,3.7l2.7,2.2c0.5,0.4,0.9,1.1,0.9,1.8c0,0.7-0.3,1.3-0.8,1.7l-1,0.9
		c-1,0.9-2.2,1.3-3.5,1.3H48v4h6.7c2.3,0,4.5-0.8,6.2-2.3l1-0.9c1.4-1.2,2.1-2.9,2.1-4.7c0-1.9-0.9-3.7-2.3-4.9l-2.1-1.7l-1.5-3
		c-2.1-4-6.2-6.5-10.7-6.5H14.5L16.5,24z"/>
</g>
</svg>
