<svg id="Layer_1" data-name="Layer 1" xmlns="http://www.w3.org/2000/svg" xmlns:xlink="http://www.w3.org/1999/xlink" viewBox="0 0 500 500"><defs><clipPath id="clip-path"><path d="M363.522,123.793q.5,1.641.969,3.289c7.028,24.757,8.654,51.593.39,76.641-8.969,27.186-29.147,50.735-53.343,68.393-36.568,26.688-83.833,40.9-128.6,35.542-27.277-3.264-53.46-13.808-73.032-31.3C77.067,247,66.41,202.027,67.679,159.862c1.17-38.9,27.047-76.88,60.206-100.593q2.557-1.83,5.192-3.559c33.476-21.967,75.492-31.43,115.03-26.917,27.292,3.114,53.715,12.874,73.956,29.678C342.541,75.471,355.964,99.08,363.522,123.793Z" style="fill:#f3a673;clip-rule:evenodd"/></clipPath><clipPath id="clip-path-2"><path d="M311.2,155.751q.324,1.056.624,2.117c4.523,15.938,5.54,33.222.149,49.368-5.852,17.524-18.966,32.721-34.677,44.129-23.743,17.241-54.406,26.46-83.424,23.07-17.679-2.065-34.64-8.822-47.3-20.065-21.248-18.862-28.095-47.819-27.215-74.981.812-25.059,17.64-49.56,39.169-64.88q1.661-1.182,3.371-2.3c21.733-14.2,48.986-20.349,74.612-17.5,17.69,1.97,34.807,8.22,47.907,19.017C297.668,124.653,306.338,139.842,311.2,155.751Z" style="fill:#fee4c6;clip-rule:evenodd"/></clipPath></defs><path d="M367.82,73.079c34.579,53.337,33.941,125.382-22.746,183.51-50.217,51.492-135.126,71.972-200.863,50.112C79.759,285.269,36.479,224.029,40.874,160.67,45.344,96.249,98.905,32.233,169.289,9.682,254.675-17.675,330.762,15.92,367.82,73.079Z" style="fill:#e2f3f0"/><path d="M21.177,195.641c-3.185,3.537-2.739,8.114-1.911,13.036a106.018,106.018,0,0,0,10.439,31.228c3.132,6.031,10.043,17,15.712,20.979s10.448.659,17.122-2.041a11.891,11.891,0,0,0,5.91-4.731c2.222-3.805,1.125-8.451-.228-12.515-5.032-15.105-12.769-29.139-20.457-43.068-2.03-3.678-4.344-7.608-8.36-9.145-5.678-2.173-11.573,1.294-16.2,4.5A11.524,11.524,0,0,0,21.177,195.641Z" style="fill:#aeddd5"/><path d="M369.753,51.646c4.912-.179,8.12,3.074,11.335,6.846A99.638,99.638,0,0,1,397.93,86.459c2.47,6.25,6.093,18.5,5.155,25.259s-6.875,8.009-13.616,11.045a12.976,12.976,0,0,1-7.7,1.15c-4.411-.88-7.177-4.658-9.323-8.24-7.965-13.292-13.289-27.838-18.571-42.294-1.4-3.819-2.791-8.008-1.252-11.963,2.184-5.616,8.8-7.869,14.393-9.347A12.476,12.476,0,0,1,369.753,51.646Z" style="fill:#aeddd5"/><path d="M363.522,123.793q.5,1.641.969,3.289c7.028,24.757,8.654,51.593.39,76.641-8.969,27.186-29.147,50.735-53.343,68.393-36.568,26.688-83.833,40.9-128.6,35.542-27.277-3.264-53.46-13.808-73.032-31.3C77.067,247,66.41,202.027,67.679,159.862c1.17-38.9,27.047-76.88,60.206-100.593q2.557-1.83,5.192-3.559c33.476-21.967,75.492-31.43,115.03-26.917,27.292,3.114,53.715,12.874,73.956,29.678C342.541,75.471,355.964,99.08,363.522,123.793Z" style="fill:#f3a673;fill-rule:evenodd"/><g style="clip-path:url(#clip-path)"><path d="M236.388,101.572a2.49,2.49,0,0,1-.285-.017,2.442,2.442,0,0,1-2.143-2.708c2.394-20.6,5.693-41.342,9.8-61.66,1.354-6.688,2.706-12.685,5.567-18.342a2.442,2.442,0,0,1,4.358,2.2c-2.586,5.112-3.857,10.772-5.139,17.107-4.084,20.184-7.361,40.793-9.74,61.256A2.443,2.443,0,0,1,236.388,101.572Z" style="fill:#b67d56"/><path d="M267.127,111.439a2.441,2.441,0,0,1-1.869-4.01C279,91.054,291.242,73.052,303.083,55.643L310.935,44.1a2.782,2.782,0,0,1,1.147-2.408,2.594,2.594,0,0,1,3.335.239,3.016,3.016,0,0,1,.2,3.975L307.121,58.39C295.211,75.9,282.9,94,269,110.567A2.439,2.439,0,0,1,267.127,111.439Z" style="fill:#b67d56"/><path d="M208.616,106.18a2.443,2.443,0,0,1-2.39-1.956c-2.167-10.663-6.157-21.184-10.016-31.358-5.3-13.975-10.78-28.425-11.771-43.7a2.442,2.442,0,1,1,4.874-.316c.943,14.545,6.291,28.647,11.463,42.285,3.928,10.357,7.989,21.066,10.235,32.117a2.441,2.441,0,0,1-1.907,2.879A2.392,2.392,0,0,1,208.616,106.18Z" style="fill:#b67d56"/><path d="M171.628,122.946a2.435,2.435,0,0,1-1.935-.951c-15.032-19.507-29.714-39.708-43.638-60.042a13.977,13.977,0,0,1-2.006-3.765,2.442,2.442,0,0,1,4.667-1.438,9.96,9.96,0,0,0,1.368,2.445c13.873,20.259,28.5,40.385,43.476,59.82a2.441,2.441,0,0,1-1.932,3.931Z" style="fill:#b67d56"/><path d="M146.38,144.592a2.442,2.442,0,0,1-.988-.21c-4.7-2.082-9.6-3.809-14.352-5.479-24.929-8.772-50.319-17.62-75.465-26.3a2.441,2.441,0,1,1,1.593-4.615c25.155,8.681,50.554,17.532,75.493,26.308,4.836,1.7,9.838,3.461,14.71,5.62a2.443,2.443,0,0,1-.991,4.675Z" style="fill:#b67d56"/><path d="M388.942,163.364a2.448,2.448,0,0,1-.811-.139c-5.4-1.9-11.18-2.428-17.628-2.879-20.549-1.434-41.407-2.012-62-1.721h-.035a2.442,2.442,0,0,1-.033-4.883c20.725-.295,41.727.288,62.41,1.732,6.808.475,12.93,1.041,18.909,3.144a2.442,2.442,0,0,1-.81,4.745Z" style="fill:#b67d56"/><path d="M299.941,130.111a2.442,2.442,0,0,1-.792-4.752c10.293-3.53,20.208-8.85,29.8-13.994,13.17-7.066,26.788-14.373,41.807-17.334a2.442,2.442,0,1,1,.944,4.791c-14.3,2.82-27.59,9.95-40.442,16.846-9.76,5.236-19.853,10.651-30.521,14.31A2.434,2.434,0,0,1,299.941,130.111Z" style="fill:#b67d56"/><path d="M86.949,258.652a2.441,2.441,0,0,1-1.917-3.95c3.918-4.984,8.782-8.743,14.273-12.8,16.681-12.311,34.091-24.064,51.745-34.934a2.441,2.441,0,0,1,2.56,4.158c-17.538,10.8-34.834,22.475-51.405,34.706-5.2,3.837-9.794,7.38-13.336,11.884A2.436,2.436,0,0,1,86.949,258.652Z" style="fill:#b67d56"/><path d="M67.313,194.716A2.442,2.442,0,0,1,66.426,190c14.264-5.556,29.677-6.693,44.582-7.793,10.852-.8,22.073-1.629,32.654-4.17a2.441,2.441,0,0,1,1.14,4.748c-10.967,2.634-22.389,3.477-33.435,4.292-14.546,1.073-29.586,2.183-43.169,7.473A2.447,2.447,0,0,1,67.313,194.716Z" style="fill:#b67d56"/><path d="M332.511,277.657a2.427,2.427,0,0,1-1.086-.256c-5.672-2.823-10.343-6.822-15.428-11.376-15.447-13.835-30.493-28.494-44.72-43.569a2.442,2.442,0,0,1,3.552-3.352c14.133,14.976,29.081,29.539,44.426,43.284,4.816,4.312,9.22,8.09,14.345,10.641a2.442,2.442,0,0,1-1.089,4.628Z" style="fill:#b67d56"/><path d="M368.029,221.574a2.781,2.781,0,0,1-2.316-1.246l-13.2-4.559c-19.9-6.878-40.484-13.99-61.279-18.9a2.441,2.441,0,1,1,1.122-4.752c21.035,4.969,41.734,12.121,61.752,19.038l14.272,4.932a3.02,3.02,0,0,1,2.218,3.3,2.6,2.6,0,0,1-2.534,2.187Zm.668-.417h0Zm-1.908-.457h0Z" style="fill:#b67d56"/><path d="M275.285,309.033a2.438,2.438,0,0,1-2.049-1.112c-8.338-12.839-12.583-27.7-16.688-42.069-2.99-10.463-6.08-21.282-10.717-31.127a2.441,2.441,0,1,1,4.416-2.081c4.807,10.2,7.954,21.216,11,31.867,4.006,14.024,8.148,28.526,16.087,40.75a2.442,2.442,0,0,1-2.045,3.772Z" style="fill:#b67d56"/><path d="M209.775,322.378a2.441,2.441,0,0,1-2.3-1.623,13.943,13.943,0,0,1-.644-4.219c-.993-24.616-1.3-49.587-.911-74.217a2.442,2.442,0,0,1,2.441-2.4h.039a2.442,2.442,0,0,1,2.4,2.48c-.388,24.539-.083,49.418.908,73.944a10.056,10.056,0,0,0,.364,2.777,2.443,2.443,0,0,1-2.3,3.261Z" style="fill:#b67d56"/><path d="M135.415,324.43a2.442,2.442,0,0,1-2.155-3.586c12.428-23.422,24.958-47.212,37.244-70.708,2.333-4.461,4.744-9.074,6.757-13.8a2.441,2.441,0,1,1,4.492,1.914c-2.089,4.9-4.546,9.6-6.922,14.144-12.29,23.506-24.825,47.3-37.257,70.734A2.44,2.44,0,0,1,135.415,324.43Z" style="fill:#b67d56"/></g><path d="M113.209,143.667a14.05,14.05,0,0,1-2.608-10.16c.849-4.809,5.012-8.565,9.673-10.02a12.281,12.281,0,0,1,7.341-.212c3.208,1.027,5.592,3.694,7.615,6.386a71.692,71.692,0,0,1,4.644,7,11.239,11.239,0,0,1,1.79,4.7c.363,4.992-6.736,13.574-11.764,14.175-3.067.368-6.188-2.287-8.463-3.977A34.736,34.736,0,0,1,113.209,143.667Z" style="fill:#fee4c6"/><path d="M136.015,137.979c2.043,2.25,2.639,5.353,3.387,7.781,1.313,4.259-.2,7.587-3.569,7.87s-9.924-2.649-13.345-6.731c-7.243-8.642-.312-17.769,8.571-12.726A18.9,18.9,0,0,1,136.015,137.979Z" style="fill:#fcc28e"/><path d="M280.852,93.541a14.044,14.044,0,0,0-3.4-9.924c-3.349-3.553-8.891-4.407-13.585-3.065a12.289,12.289,0,0,0-6.253,3.852c-2.117,2.619-2.646,6.157-2.859,9.518a71.569,71.569,0,0,0-.039,8.4,11.229,11.229,0,0,0,1.083,4.91c2.436,4.372,13.081,7.648,17.615,5.391,2.764-1.377,3.916-5.308,4.889-7.97A34.72,34.72,0,0,0,280.852,93.541Z" style="fill:#fee4c6"/><path d="M258.667,101.306c-.473,3,.732,5.923,1.44,8.363,1.241,4.281,4.329,6.234,7.3,4.619s6.841-7.662,7.46-12.952c1.31-11.2-9.494-15.023-14.15-5.932A18.884,18.884,0,0,0,258.667,101.306Z" style="fill:#fcc28e"/><path d="M311.2,155.751q.324,1.056.624,2.117c4.523,15.938,5.54,33.222.149,49.368-5.852,17.524-18.966,32.721-34.677,44.129-23.743,17.241-54.406,26.46-83.424,23.07-17.679-2.065-34.64-8.822-47.3-20.065-21.248-18.862-28.095-47.819-27.215-74.981.812-25.059,17.64-49.56,39.169-64.88q1.661-1.182,3.371-2.3c21.733-14.2,48.986-20.349,74.612-17.5,17.69,1.97,34.807,8.22,47.907,19.017C297.668,124.653,306.338,139.842,311.2,155.751Z" style="fill:#fee4c6;fill-rule:evenodd"/><g style="clip-path:url(#clip-path-2)"><path d="M158.375,135.163q-.826-5.432-1.557-10.853c-.868-6.492-1.6-13.184-.59-18.8s4.219-9.9,8.451-8.772c4.411,1.17,8.367,7.445,11.6,13.33,5.606,10.2,10.6,20.807,15.449,31.677,4.6,10.322,10.195,19.542,15.055,29.61a284.334,284.334,0,0,1,12.847,30.574,18.356,18.356,0,0,1,1.286,5.656,9.052,9.052,0,0,1-1.587,4.925c-8.758,14.452-23.5,19.824-38.765,14.123a11.227,11.227,0,0,1-5.706-4.089c-2-2.854-2.771-6.886-3.407-10.569L163.094,163.6C161.456,154.118,159.817,144.63,158.375,135.163Z" style="fill:#fcc28e;fill-rule:evenodd"/><path d="M177.331,223.371a10.866,10.866,0,0,1,2.338-3.868c7.961-9.486,46.252-28.833,43.1-6.959C219.927,232.322,173.383,237.783,177.331,223.371Z" style="fill:#333;fill-rule:evenodd"/><path d="M243.906,191.965a36.7,36.7,0,0,0-5.888,2.416c-2.194,1.132-4.357,2.559-5,5.285-.391,3.937,3.314,5.159,6.333,4.918a18.837,18.837,0,0,0,7.145-2.25c2.372-1.242,4.635-2.861,5.414-5.789C252.526,190.882,247.248,190.922,243.906,191.965Z" style="fill:#f9bebf;fill-rule:evenodd"/><path d="M236.943,197.89c.739,0,.725-.793-.014-.793s-.724.793.014.793Z" style="fill:#4d4d4e"/><path d="M240.4,194.6c.739,0,.725-.792-.014-.792s-.725.792.014.792Z" style="fill:#4d4d4e"/><path d="M245.925,193.122c.739,0,.725-.792-.014-.792s-.724.792.014.792Z" style="fill:#4d4d4e"/><path d="M247.826,198.5c.74,0,.725-.792-.013-.792s-.725.792.013.792Z" style="fill:#4d4d4e"/><path d="M243.506,201.142c.74,0,.725-.792-.014-.792s-.724.792.014.792Z" style="fill:#4d4d4e"/><path d="M242.155,197.321c.74,0,.725-.793-.013-.793s-.725.793.013.793Z" style="fill:#4d4d4e"/><path d="M239.052,201.6c.739,0,.724-.792-.014-.792s-.725.792.014.792Z" style="fill:#4d4d4e"/><path d="M148.255,224.838a36.669,36.669,0,0,1,5.848-2.507c2.346-.773,4.879-1.316,7.271.139,3.083,2.48,1.359,5.98-.929,7.964a18.834,18.834,0,0,1-6.612,3.521c-2.548.823-5.289,1.3-7.924-.194C141.441,230.229,145.168,226.492,148.255,224.838Z" style="fill:#f9bebf;fill-rule:evenodd"/><path d="M157.089,224.136c.739,0,.725-.793-.014-.793s-.725.793.014.793Z" style="fill:#4d4d4e"/><path d="M152.321,224.294c.739,0,.725-.792-.014-.792s-.724.792.014.792Z" style="fill:#4d4d4e"/><path d="M147.394,227.2c.739,0,.725-.792-.014-.792s-.725.792.014.792Z" style="fill:#4d4d4e"/><path d="M149.9,232.328c.739,0,.724-.792-.014-.792s-.725.792.014.792Z" style="fill:#4d4d4e"/><path d="M154.811,231.1c.739,0,.724-.792-.014-.792s-.725.792.014.792Z" style="fill:#4d4d4e"/><path d="M153.031,227.456c.739,0,.725-.793-.014-.793s-.725.793.014.793Z" style="fill:#4d4d4e"/><path d="M158.26,228.242c.74,0,.725-.793-.014-.793s-.724.793.014.793Z" style="fill:#4d4d4e"/><path d="M203.925,241.081a8.39,8.39,0,0,1-4.715-1.812.9.9,0,1,1,1.044-1.476c1.721,1.217,3.19,1.686,4.375,1.4a3.841,3.841,0,0,0,2.385-2.2,3.623,3.623,0,0,0,.126-2.847l-2.049-5.8a.9.9,0,1,1,1.7-.6l2.049,5.8a5.44,5.44,0,0,1-.22,4.275,5.62,5.62,0,0,1-3.563,3.134A4.76,4.76,0,0,1,203.925,241.081Z" style="fill:#333"/><path d="M212.731,237.96a6.773,6.773,0,0,1-2.734-.633,5.436,5.436,0,0,1-2.857-3.187l-2.049-5.8a.9.9,0,1,1,1.7-.6l2.049,5.8a3.629,3.629,0,0,0,1.887,2.137,3.847,3.847,0,0,0,3.241.213c1.1-.516,1.949-1.807,2.524-3.836a.9.9,0,1,1,1.74.492c-.723,2.556-1.9,4.232-3.5,4.981A4.686,4.686,0,0,1,212.731,237.96Z" style="fill:#333"/><path d="M223.8,173.368a1.047,1.047,0,0,1-1-.736,5.782,5.782,0,0,1,.632-4.35,9.214,9.214,0,0,1,6.773-4.847,7.874,7.874,0,0,1,7.625,3.47,1.047,1.047,0,0,1-1.776,1.11,5.818,5.818,0,0,0-5.578-2.5,7.093,7.093,0,0,0-5.194,3.751,3.875,3.875,0,0,0-.483,2.748,1.045,1.045,0,0,1-.688,1.31A1.018,1.018,0,0,1,223.8,173.368Z" style="fill:#333"/><path d="M137.856,205.394a1.048,1.048,0,0,1-1-.736,5.778,5.778,0,0,1,.631-4.351,9.218,9.218,0,0,1,6.773-4.847,7.882,7.882,0,0,1,7.626,3.47,1.048,1.048,0,0,1-1.777,1.11,5.818,5.818,0,0,0-5.577-2.5,7.094,7.094,0,0,0-5.195,3.752,3.865,3.865,0,0,0-.482,2.747,1.047,1.047,0,0,1-.688,1.311A1.061,1.061,0,0,1,137.856,205.394Z" style="fill:#333"/></g><g style="opacity:0.54"><path d="M312.34,64.432c-4.157,11.524-21.289-8.657-48.8-17.435-27.373-8.735-54.792-2.677-50.709-14.108s29.857-20.316,57.3-11.674C297.719,29.9,316.5,52.9,312.34,64.432Z" style="fill:#fff"/></g><g style="opacity:0.39"><path d="M107.726,72.318c6.412,3.011,1.661,26.639-10.612,52.776s-27.42,44.884-33.832,41.873-6.309-28.749,5.963-54.885S101.314,69.307,107.726,72.318Z" style="fill:#fff"/></g><path d="M129.217,345.938a17.109,17.109,0,0,1-5.684-4.627c-2.2-3.044-2.639-7.006-2.671-10.764a23.47,23.47,0,0,1,1.126-8.362,10.419,10.419,0,0,1,5.481-6.159c3.449-1.426,7.356-.317,10.966.631,21.32,5.6,44.394,4.944,65.024-2.823,4.88-1.837,9.986-4.1,15.106-3.12,4.153.8,7.674,3.7,10.048,7.2,6.43,9.479,8.913,25.628-.569,34.1-3.311,2.959-7.705,4.36-12.013,5.434-28.476,7.1-59.474,2.948-85.425-10.757C130.142,346.447,129.678,346.2,129.217,345.938Z" style="fill:#deedea"/><path d="M129.266,322.117c-1.307,5.782.978,12.322-5.5,15.574-7.591,3.81-17.247,4.443-24.526-.544-3.508-2.4-6.727-6.757-7.342-11.05a13.426,13.426,0,0,1,.3-4.768,19.493,19.493,0,0,1,4.289-8.736,14.634,14.634,0,0,1,8.366-4.809,18.009,18.009,0,0,1,5.931.117,29.7,29.7,0,0,1,13.029,5.607C126.222,315.334,130.021,318.78,129.266,322.117Z" style="fill:#9dc7c0"/><path d="M122.419,342.954c-1.161-1.064-1.184-2.946-1.095-5.01a58.6,58.6,0,0,1,2.246-13.668c.8-2.757,2.634-7.894,4.32-10.081s3.334-1.332,5.562-.928a3.018,3.018,0,0,1,2.048,1.293c.838,1.293.651,3.26.362,5.021a146.672,146.672,0,0,1-5,19.309c-.518,1.683-1.118,3.5-2.348,4.548-1.743,1.49-3.764.761-5.374,0A2.89,2.89,0,0,1,122.419,342.954Z" style="fill:#aeddd5"/><path d="M210.256,317.7c8.674-9.437,23.112-5.851,30.12,3.67a23.073,23.073,0,0,1-2.174,29.662c-3.971,4.134-9.836,7.21-15.708,6.507-6-.717-10.519-5.888-13.162-10.954-4.606-8.829-5.685-20.768.924-28.885,2.728-3.349-4.876-5.12-6.969-2.55-14.479,17.78.149,50.574,24.14,47.514,11.7-1.493,22.047-10.368,24.741-21.957,2.559-11.015-2.547-22.267-11.7-28.632-11.152-7.752-27.788-7.143-37.178,3.075C200.4,318.288,208.025,320.128,210.256,317.7Z" style="fill:#aeddd5"/><path d="M369.354,351.078a1.676,1.676,0,0,1-.718-3.19c11.062-5.235,28.25-15.94,49.717-48.331a1.675,1.675,0,1,1,2.792,1.851c-21.929,33.088-39.652,44.1-51.076,49.508A1.66,1.66,0,0,1,369.354,351.078Z" style="fill:#b67d56"/><path d="M422.865,280.16a28.147,28.147,0,0,1,8.051-3.744c4.956-1.457,10.157-1.825,15.31-2.184a52.83,52.83,0,0,1-1.077,12.312c-2.391,9.61-13.554,19.65-23.969,15.8-3.672-1.358-5.83-3.433-6.135-7.392a15.574,15.574,0,0,1,3.085-10.269A19.9,19.9,0,0,1,422.865,280.16Z" style="fill:#f3a673"/><path d="M447.884,392.623c8.1-.244,16.823-7.088,24.965-4.353,11.377,3.822,9.664,15.989,4.435,24.082-12.447,19.266-40.872,21.287-60.61,22.635-21.085,1.44-35.382-3.656-54.148-9.365a10.393,10.393,0,0,1-4.478-2.738c-2.829-2.784-3.479-8.1-3.5-11.623-.081-14.615-7.757-61.353,16.492-58.594,12.342,1.4,21.637,15.684,31.77,22.558s20.281,12.851,32.348,15.765A43.268,43.268,0,0,0,447.884,392.623Z" style="fill:#deedea"/><path d="M366.057,463c7.514,3.767,18.874,1.847,24.941,8.338,8.477,9.071.862,19.272-7.934,24.045-20.939,11.363-47.875-.8-66.553-9.291-19.951-9.072-32.372-20.216-46.651-34.636a16.785,16.785,0,0,1-3.662-5.736c-1.2-3.921,3.706-8.541,5.441-11.75,7.2-13.307,23.443-59.514,44.193-45.072,10.56,7.351,11.937,24.889,17.762,36.118s12.109,21.651,21.668,30.237A44.825,44.825,0,0,0,366.057,463Z" style="fill:#deedea"/><path d="M277.851,454.735c4.513,1.44,9.219-5.65,14.276-6.833,31.4-7.345,59.976-15.178,85.162-35.412,9.18-7.375,17.615-16.67,19.811-27.343,1.9-9.226-2.84-28.076-6.048-36.239-13.852-35.247-25.126-64.05-51.766-85.78a8.4,8.4,0,0,0-2.96-2.775c-2.927-1.378-6.85.2-10.127,1.764-31.209,14.916-61.475,34.877-108.023,61.711-13.862,7.992,8.312,49.555,15.067,63.129C241.35,403.248,258.308,448.5,277.851,454.735Z" style="fill:#deedea"/><path d="M323.773,429.883c-5.372.212-10.53,1.731-15.626,3.289-6.563,2.006-13.176,4.115-19.174,7.466-6.029,3.368-17.449,13.2-15.424,15.342,2.679.585,6.138-1.567,8.583-2.64A164.3,164.3,0,0,1,326.7,440.907c3.852-.5,14.137-.406,13.067-6.5C338.8,428.928,327.675,429.729,323.773,429.883Z" style="fill:#aeddd5"/><path d="M381.462,373.664c-3.9,3.618-6.85,8.115-9.728,12.6-3.706,5.777-7.387,11.668-9.853,18.128-2.479,6.494-5.081,21.478-2.261,21.843,2.365-1.267,3.654-5.163,4.837-7.569a168.347,168.347,0,0,1,25.889-38.31c2.584-2.869,10.36-9.4,5.858-13.453C392.157,363.263,384.3,371.036,381.462,373.664Z" style="fill:#aeddd5"/><path d="M331.065,356.223c-.021.074-.045.147-.073.22-.5,1.335-1.9,2.069-3.183,2.683l-71.231,34.06c-1.057.5-2.307,1.012-3.35.478a3.842,3.842,0,0,1-1.461-1.786q-6.2-11.922-11.435-24.309c-3.043-7.2-1.779-10.516,4.827-13.931q11.207-5.795,22.528-11.367,22.275-10.964,44.969-21.047a3.048,3.048,0,0,1,1.945-.384c.852.22,1.329,1.1,1.7,1.9l13.925,29.439C330.833,353.451,331.445,354.891,331.065,356.223Z" style="fill:#aeddd5;fill-rule:evenodd"/><path d="M326.211,354.3c-.022.062-.047.123-.075.185a5.761,5.761,0,0,1-2.972,2.352l-65.352,31.246c-.969.463-2.113.937-3.023.543a2.786,2.786,0,0,1-1.23-1.406q-5.019-9.543-9.158-19.513c-2.405-5.793-1.123-8.583,4.949-11.692q10.3-5.276,20.7-10.372,20.451-10.027,41.237-19.351a3.109,3.109,0,0,1,1.76-.4c.754.143,1.141.849,1.443,1.488L325.645,351A4.371,4.371,0,0,1,326.211,354.3Z" style="fill:#e2f3f0;fill-rule:evenodd"/><path d="M265.412,359.687c-5.982-4.07-12.207,7.594-5.293,11.216,5.852,3.065,10.563-5.388,6.793-9.835A7.6,7.6,0,0,0,265.412,359.687Z" style="fill:#9dc7c0"/><path d="M285.67,349.759c-5.981-4.071-12.207,7.593-5.293,11.215,5.852,3.066,10.563-5.387,6.793-9.834A7.6,7.6,0,0,0,285.67,349.759Z" style="fill:#aeddd5"/><path d="M305.209,340.259c-5.981-4.071-12.207,7.593-5.293,11.215,5.852,3.065,10.563-5.388,6.793-9.835A7.564,7.564,0,0,0,305.209,340.259Z" style="fill:#c4e6e0"/><path d="M223.664,326.578c43.487-6.017,84.262-22.228,112.5-51.366a14.391,14.391,0,0,0,4.117-11.847c-.728-6.187-4.842-14.875-11.14-8.948-23.3,21.931-63.5,41.292-103.829,49.666a42.071,42.071,0,0,1-7.645.881,31.019,31.019,0,0,0-12.5,3.137c-3.1,1.648-4.639,3.6-4.389,8.9C201.4,330.055,214.817,327.8,223.664,326.578Z" style="fill:#a3cfc7"/><path d="M324.985,276.119c6.721-8.332,17.665-7.083,25.58-1.034,9.419,7.2,11.584,19.776,6.187,30.157-5.848,11.25-21.275,17.59-29.71,5.491a43.236,43.236,0,0,1-7.067-15.444c-1.423-7.049.848-13.485,5.01-19.17,2.618-3.577-5.1-5.323-7.1-2.6-3.99,5.451-6.837,11.625-6.491,18.521.3,6.013,2.785,11.651,5.708,16.818,3.045,5.383,6.842,10.339,12.817,12.61,5.64,2.144,11.953,1.779,17.6-.107a30.205,30.205,0,0,0,20.376-27.62c.257-11.64-7.413-21.406-17.692-26.117-10.879-4.986-24.49-3.813-32.321,5.9C315.127,276.948,322.865,278.746,324.985,276.119Z" style="fill:#aeddd5"/><path d="M254.283,304.566a17.109,17.109,0,0,1-5.684-4.627c-2.2-3.045-2.638-7.006-2.671-10.765a23.5,23.5,0,0,1,1.126-8.362,10.426,10.426,0,0,1,5.482-6.159c3.449-1.426,7.356-.317,10.965.631,21.32,5.6,44.394,4.944,65.024-2.822,4.88-1.837,9.986-4.1,15.107-3.12,4.152.8,7.673,3.7,10.047,7.2,6.43,9.479,8.914,25.628-.569,34.1-3.311,2.958-7.705,4.36-12.013,5.434-28.476,7.1-59.474,2.948-85.424-10.757C255.209,305.075,254.744,304.825,254.283,304.566Z" style="fill:#e3f2ef"/><path d="M254.333,280.744c-1.307,5.783.977,12.323-5.5,15.574-7.591,3.811-17.247,4.443-24.527-.544-3.507-2.4-6.727-6.757-7.342-11.05a13.4,13.4,0,0,1,.3-4.767,19.482,19.482,0,0,1,4.288-8.736,14.637,14.637,0,0,1,8.366-4.809,17.954,17.954,0,0,1,5.931.117,29.682,29.682,0,0,1,13.029,5.607C251.288,273.962,255.087,277.407,254.333,280.744Z" style="fill:#9dc7c0"/><path d="M247.485,301.581c-1.161-1.063-1.184-2.945-1.1-5.009a58.536,58.536,0,0,1,2.247-13.668c.795-2.758,2.634-7.895,4.32-10.081s3.333-1.333,5.562-.929a3.017,3.017,0,0,1,2.047,1.293c.838,1.294.651,3.261.363,5.021a146.843,146.843,0,0,1-5,19.31c-.518,1.682-1.118,3.5-2.348,4.548-1.743,1.49-3.765.761-5.374,0A2.945,2.945,0,0,1,247.485,301.581Z" style="fill:#aeddd5"/></svg>