<svg id="Layer_1" data-name="Layer 1" xmlns="http://www.w3.org/2000/svg" viewBox="0 0 500 500"><path d="M405.211,151.08c1.277,60.646-32.832,112.92-104.147,131.1-61.929,15.786-135.494-4.126-173.776-52.9C90.115,181.911,85.867,113.7,117.053,65.722c32.06-49.321,100.9-76.25,164.584-61.854C360.466,21.687,403.842,85.984,405.211,151.08Z" style="fill:#e2f3f0"/><path d="M88.812,110.288c-3.48,1.273-4.91,4.853-6.213,8.851A98.605,98.605,0,0,0,77.816,146.7c-.173,5.8.329,16.846,2.638,22.195s6.777,4.91,12.285,5.733a8.384,8.384,0,0,0,5.764-1c2.932-1.879,3.951-5.786,4.577-9.37,2.325-13.322,2.426-27,2.52-40.57.025-3.585-.045-7.476-2.165-10.315-3-4.013-8.273-3.938-12.595-3.523A8.1,8.1,0,0,0,88.812,110.288Z" style="fill:#aeddd5"/><path d="M412.108,122.535c4.243,1.964,5.657,6.2,6.868,10.891a101.379,101.379,0,0,1,3.035,31.775c-.42,6.541-2.28,18.843-5.8,24.356s-9.064,4.049-16.013,3.8a12.021,12.021,0,0,1-7-2.317c-3.392-2.675-4.218-7.179-4.6-11.244-1.409-15.085-.071-30.128,1.267-45.073.354-3.948.857-8.221,3.757-11.022,4.117-3.977,10.64-3.1,15.989-1.976A11.594,11.594,0,0,1,412.108,122.535Z" style="fill:#aeddd5"/><path d="M311.341,113.243a27.581,27.581,0,0,0,4.751,14.925c4.62,7,12,11.567,19.52,15.016,10.911,5,22.545,8.116,34.215,10.711,2.592.577,5.38,1.113,7.825.057,2.8-1.21,4.479-4.312,4.894-7.405s-.215-6.222-.842-9.277A9.5,9.5,0,0,0,390.039,132a10.01,10.01,0,0,0-.86-10.019c3.6-1.344,7.681-3.34,8.409-7.2.5-2.645-.815-5.271-2.225-7.543a62.315,62.315,0,0,0-26.6-23.618,48.289,48.289,0,0,0-24.674-4.656C327.058,80.605,311.086,96.24,311.341,113.243Z" style="fill:#cccccb"/><path d="M321.248,112.375a16.966,16.966,0,0,0,.2,2.091,20.75,20.75,0,0,0,8.167,12.953c5.955,4.492,16.43,7.434,23.695,9.772,3.156,1.016,6.816,1.2,9.57-.676s3.891-6.33,1.6-8.779c4.377-.653,7.245-6.293,5.266-10.356,2.708.219,4.771-2.912,4.519-5.69s-2.079-5.117-3.959-7.132c-5.111-5.479-11.354-10.037-18.462-12.115s-15.139-1.464-21.362,2.627A20.526,20.526,0,0,0,321.248,112.375Z" style="fill:#f2f2f3"/><path d="M206.339,100.311a32.019,32.019,0,0,1-17.413,17.532c-7.2,2.9-15.169,2.972-22.918,2.82q-12.831-.252-25.65-1.162c-3.723-.264-7.858-.777-10.269-3.692-1.891-2.287-2.221-5.594-1.565-8.511a29.345,29.345,0,0,1,3.663-8.113,9.776,9.776,0,0,1-6.432-7.866,9.878,9.878,0,0,1,4.183-9.305,9.583,9.583,0,0,1-5.495-7.908c-.677-9.291,11.363-12.894,17.97-15.52,8.706-3.462,17.959-5.763,27.35-5.531,14.429.356,29.386,7.68,35.741,20.943A33.128,33.128,0,0,1,206.6,99.646C206.515,99.869,206.428,100.09,206.339,100.311Z" style="fill:#cccccb"/><path d="M197.257,96.144a18.674,18.674,0,0,1-8.3,9.814c-7.243,3.933-16,2.4-24.206,2.591-2.9.066-5.84.359-8.694-.205s-5.7-2.168-6.917-4.868-.149-6.5,2.61-7.431a6.629,6.629,0,0,1-4.294-5.2,6.715,6.715,0,0,1,2.569-6.269c-3.077-.7-4.28-4.948-2.96-7.873s4.261-4.69,7.15-5.971c13.682-6.065,37.176-6.411,43.375,10.906A21.063,21.063,0,0,1,197.257,96.144Z" style="fill:#f2f2f3"/><path d="M354.22,200.773q-.893,5.275-2.189,10.457c-4.774,19.134-13.641,37.605-27.729,51.09-15.464,14.8-36.312,22.71-57.309,25.447-24.981,3.257-51.118-.544-73.314-12.759-22.215-12.225-40.139-33.185-47.1-58.027-5.583-19.932-4.046-41.434,1.439-61.4,9.88-35.96,33.567-64.372,69.188-74.662,33.972-9.813,72.6-3.022,100.515,19.361,15.169,12.164,27.26,28.587,33.392,47.295C356.7,164.6,357.222,183.024,354.22,200.773Z" style="fill:#cccccb;fill-rule:evenodd"/><path d="M165.2,226.363a.719.719,0,0,1-.707-.59,30.066,30.066,0,0,0-2.927-8.553.719.719,0,1,1,1.275-.664,31.557,31.557,0,0,1,3.067,8.961.716.716,0,0,1-.708.846Z" style="fill:#b8b8b7"/><path d="M155.368,203.823a.719.719,0,0,1-.7-.559,28.44,28.44,0,0,1-.22-11.48.719.719,0,1,1,1.413.265,26.981,26.981,0,0,0,.208,10.895.719.719,0,0,1-.541.861A.734.734,0,0,1,155.368,203.823Z" style="fill:#b8b8b7"/><path d="M166.291,202.648a.717.717,0,0,1-.657-.425,25.029,25.029,0,0,1-2.156-10.148.718.718,0,0,1,.718-.718h0a.718.718,0,0,1,.718.719,23.566,23.566,0,0,0,2.031,9.561.719.719,0,0,1-.363.949A.707.707,0,0,1,166.291,202.648Z" style="fill:#b8b8b7"/><path d="M173.431,224.156a.716.716,0,0,1-.571-.282,34.4,34.4,0,0,1-4.34-7.447.719.719,0,0,1,1.323-.562A32.9,32.9,0,0,0,174,223a.719.719,0,0,1-.57,1.156Z" style="fill:#b8b8b7"/><path d="M155.541,218.275a.718.718,0,0,1-.686-.5,25.751,25.751,0,0,0-3.161-6.646.719.719,0,0,1,1.2-.8,27.211,27.211,0,0,1,3.336,7.016.718.718,0,0,1-.473.9A.71.71,0,0,1,155.541,218.275Z" style="fill:#b8b8b7"/><path d="M157.639,184.389h-.032a.718.718,0,0,1-.687-.748,31.677,31.677,0,0,1,1.82-9.315.719.719,0,1,1,1.353.485,30.28,30.28,0,0,0-1.738,8.891A.718.718,0,0,1,157.639,184.389Z" style="fill:#b8b8b7"/><path d="M157.992,159.758a.742.742,0,0,1-.131-.012.718.718,0,0,1-.576-.836,28.175,28.175,0,0,1,4.317-10.6.718.718,0,1,1,1.191.8,26.739,26.739,0,0,0-4.1,10.056A.718.718,0,0,1,157.992,159.758Z" style="fill:#b8b8b7"/><path d="M168.447,163.187a.718.718,0,0,1-.718-.708,25.04,25.04,0,0,1,2.02-10.178.719.719,0,0,1,1.32.569,23.582,23.582,0,0,0-1.9,9.589.718.718,0,0,1-.709.728Z" style="fill:#b8b8b7"/><path d="M166.518,185.825a.72.72,0,0,1-.7-.545,34.987,34.987,0,0,1-1.04-8.6.719.719,0,0,1,.719-.716h0a.72.72,0,0,1,.715.722,33.535,33.535,0,0,0,1,8.251.72.72,0,0,1-.523.872A.754.754,0,0,1,166.518,185.825Z" style="fill:#b8b8b7"/><path d="M151.749,173.017h-.006a.717.717,0,0,1-.712-.724,27.51,27.51,0,0,1,1.169-7.709.718.718,0,1,1,1.375.414,26.1,26.1,0,0,0-1.108,7.307A.717.717,0,0,1,151.749,173.017Z" style="fill:#b8b8b7"/><path d="M322.307,250.959a.718.718,0,0,1-.658-1.007,31.169,31.169,0,0,1,5.02-7.956.719.719,0,0,1,1.086.942,29.656,29.656,0,0,0-4.789,7.59A.719.719,0,0,1,322.307,250.959Z" style="fill:#b8b8b7"/><path d="M336.975,231.462a.717.717,0,0,1-.644-1.035,26.884,26.884,0,0,0,2.7-10.5.732.732,0,0,1,.751-.684.717.717,0,0,1,.684.751,28.33,28.33,0,0,1-2.846,11.068A.721.721,0,0,1,336.975,231.462Z" style="fill:#b8b8b7"/><path d="M326.7,227.715a.718.718,0,0,1-.57-1.155,23.333,23.333,0,0,0,4.155-8.775.718.718,0,1,1,1.4.33,24.756,24.756,0,0,1-4.413,9.319A.715.715,0,0,1,326.7,227.715Z" style="fill:#b8b8b7"/><path d="M314.86,246.856a.718.718,0,0,1-.453-1.276,32.435,32.435,0,0,0,5.656-5.923.719.719,0,0,1,1.156.854,33.852,33.852,0,0,1-5.907,6.185A.714.714,0,0,1,314.86,246.856Z" style="fill:#b8b8b7"/><path d="M333.492,245.422a.717.717,0,0,1-.617-1.084,26.821,26.821,0,0,1,4.832-6,.719.719,0,0,1,.978,1.053,25.361,25.361,0,0,0-4.573,5.682A.72.72,0,0,1,333.492,245.422Z" style="fill:#b8b8b7"/><path d="M339.246,212.1a.7.7,0,0,1-.136-.013.718.718,0,0,1-.571-.84,30.334,30.334,0,0,0,.364-9.031.718.718,0,0,1,1.428-.156,31.782,31.782,0,0,1-.381,9.457A.718.718,0,0,1,339.246,212.1Z" style="fill:#b8b8b7"/><path d="M344.555,188.156h-.038a.719.719,0,0,1-.68-.755,26.926,26.926,0,0,0-1.645-10.725.719.719,0,0,1,1.347-.5,28.384,28.384,0,0,1,1.733,11.3A.719.719,0,0,1,344.555,188.156Z" style="fill:#b8b8b7"/><path d="M333.675,188.964a.719.719,0,0,1-.7-.894,23.633,23.633,0,0,0,.364-9.749.719.719,0,0,1,1.416-.246,25.115,25.115,0,0,1-.386,10.346A.719.719,0,0,1,333.675,188.964Z" style="fill:#b8b8b7"/><path d="M330.34,211.359a.718.718,0,0,1-.637-1.048,33.359,33.359,0,0,0,2.857-7.755.718.718,0,0,1,1.4.325,34.759,34.759,0,0,1-2.98,8.09A.718.718,0,0,1,330.34,211.359Z" style="fill:#b8b8b7"/><path d="M347.536,202.5a.677.677,0,0,1-.16-.018.718.718,0,0,1-.541-.86,26.173,26.173,0,0,0,.607-7.342.718.718,0,0,1,.675-.759.7.7,0,0,1,.759.675,27.586,27.586,0,0,1-.64,7.746A.718.718,0,0,1,347.536,202.5Z" style="fill:#b8b8b7"/><path d="M249.958,116.343a.719.719,0,0,1-.7-.559l-1.448-6.356a.719.719,0,1,1,1.4-.32l1.448,6.357a.718.718,0,0,1-.541.86A.734.734,0,0,1,249.958,116.343Z" style="fill:#b8b8b7"/><path d="M247.717,103.49l-1.384-.375c.429-2.032.8-4.1,1.113-6.134a.718.718,0,1,1,1.42.216c-.268,1.764-.584,3.548-.942,5.316a.705.705,0,0,1-.015.4Z" style="fill:#b8b8b7"/><path d="M260.4,111.47a.655.655,0,0,1-.1-.007.718.718,0,0,1-.614-.809c.066-.492.137-.985.207-1.477l.667-4.678a.719.719,0,0,1,1.423.2l-.663,4.652c-.074.516-.144,1-.211,1.5A.718.718,0,0,1,260.4,111.47Z" style="fill:#b8b8b7"/><path d="M254.811,116.707h-.051a.719.719,0,0,1-.666-.768l.549-7.829a.727.727,0,0,1,.767-.666.719.719,0,0,1,.667.767l-.55,7.829A.718.718,0,0,1,254.811,116.707Z" style="fill:#b8b8b7"/><path d="M255.865,101.517a.922.922,0,0,1-.1-.007.719.719,0,0,1-.608-.814l.122-.835c.175-1.184.355-2.409.455-3.631a.711.711,0,0,1,.774-.657.719.719,0,0,1,.658.774c-.1,1.269-.287,2.516-.465,3.723l-.122.831A.718.718,0,0,1,255.865,101.517Z" style="fill:#b8b8b7"/><path d="M267.1,106.067a.7.7,0,0,1-.15-.016.718.718,0,0,1-.554-.852l1.016-4.774a.718.718,0,1,1,1.4.3L267.8,105.5A.718.718,0,0,1,267.1,106.067Z" style="fill:#b8b8b7"/><path d="M262.86,125.4a.717.717,0,0,1-.693-.907l1.592-5.85a.718.718,0,1,1,1.386.378l-1.592,5.849A.719.719,0,0,1,262.86,125.4Z" style="fill:#b8b8b7"/><path d="M257.386,129.934l-.047,0a.717.717,0,0,1-.671-.762,40.177,40.177,0,0,1,.694-5.293.719.719,0,1,1,1.41.282,38.67,38.67,0,0,0-.67,5.1A.718.718,0,0,1,257.386,129.934Z" style="fill:#b8b8b7"/><path d="M249.7,126.7a.719.719,0,0,1-.712-.632l-.617-5.13a.718.718,0,1,1,1.426-.172l.617,5.13a.717.717,0,0,1-.627.8A.635.635,0,0,1,249.7,126.7Z" style="fill:#b8b8b7"/><path d="M273.514,115.558a.7.7,0,0,1-.3-.067.718.718,0,0,1-.351-.953c.794-1.717,1.548-3.481,2.239-5.241a.718.718,0,1,1,1.337.525c-.7,1.787-1.466,3.577-2.271,5.319A.718.718,0,0,1,273.514,115.558Z" style="fill:#b8b8b7"/><path d="M269.365,129.221a.734.734,0,0,1-.238-.04.719.719,0,0,1-.44-.916,6.673,6.673,0,0,1,1.013-1.726l3.716-5.029a.719.719,0,0,1,1.157.854l-3.717,5.03a5.437,5.437,0,0,0-.813,1.346A.718.718,0,0,1,269.365,129.221Z" style="fill:#b8b8b7"/><path d="M268.61,114.967l-.05,0a.718.718,0,0,1-.668-.765,11.3,11.3,0,0,1,.814-3.516.718.718,0,0,1,1.33.543,9.846,9.846,0,0,0-.71,3.07A.719.719,0,0,1,268.61,114.967Z" style="fill:#b8b8b7"/><path d="M275.716,102.36a.72.72,0,0,1-.677-.96,27.853,27.853,0,0,0,1.415-6.07.719.719,0,1,1,1.428.168,29.308,29.308,0,0,1-1.489,6.383A.718.718,0,0,1,275.716,102.36Z" style="fill:#b8b8b7"/><path d="M281.7,108.624a.718.718,0,0,1-.671-.975l2.03-5.329a.718.718,0,1,1,1.342.512l-2.03,5.329A.718.718,0,0,1,281.7,108.624Z" style="fill:#b8b8b7"/><path d="M277.7,118.449a.718.718,0,0,1-.659-1,35.4,35.4,0,0,1,2.036-3.98.719.719,0,0,1,1.236.734,33.793,33.793,0,0,0-1.954,3.818A.72.72,0,0,1,277.7,118.449Z" style="fill:#b8b8b7"/><path d="M263.154,99.077h-.03a.719.719,0,0,1-.689-.747,18.294,18.294,0,0,1,.662-4.195.719.719,0,0,1,1.384.388,16.822,16.822,0,0,0-.611,3.865A.717.717,0,0,1,263.154,99.077Z" style="fill:#b8b8b7"/><path d="M261.371,132.792a.718.718,0,0,1-.626-1.069l2.11-3.775a.719.719,0,1,1,1.254.7L262,132.424A.716.716,0,0,1,261.371,132.792Z" style="fill:#b8b8b7"/><path d="M317.391,188.8a32.489,32.489,0,0,0-5.737-.7,9.868,9.868,0,0,0-4.383.631,4.382,4.382,0,0,0-2.673,3.4c-.2,2.174,1.676,3.979,3.613,4.883a16.709,16.709,0,0,0,6.663,1.4,11.319,11.319,0,0,0,4.318-.573,5.55,5.55,0,0,0,3.2-2.888C323.909,191.376,320.2,189.4,317.391,188.8Z" style="fill:#f9bebf;fill-rule:evenodd"/><path d="M197.172,167.973a32.7,32.7,0,0,0-5.764-.7,9.937,9.937,0,0,0-4.4.631,4.391,4.391,0,0,0-2.684,3.406c-.2,2.178,1.684,3.988,3.63,4.9a16.82,16.82,0,0,0,6.693,1.4,11.4,11.4,0,0,0,4.337-.573,5.565,5.565,0,0,0,3.215-2.893C203.72,170.561,200,168.574,197.172,167.973Z" style="fill:#f9bebf;fill-rule:evenodd"/><path d="M240.867,228.126a5.223,5.223,0,0,1-1.364-.18c-1.991-.541-3.679-2.261-5.017-5.113a1.083,1.083,0,0,1,1.961-.92c1.055,2.251,2.274,3.577,3.623,3.944a4.607,4.607,0,0,0,5.291-3.774l1.184-7.167a1.082,1.082,0,0,1,2.136.353l-1.184,7.166a6.472,6.472,0,0,1-2.626,4.3A7.127,7.127,0,0,1,240.867,228.126Z" style="fill:#4d4d4d"/><path d="M251.527,229.963c-.12,0-.24,0-.358-.012a6.854,6.854,0,0,1-5.808-7.868l1.185-7.167a1.082,1.082,0,0,1,2.136.353l-1.185,7.166a4.7,4.7,0,0,0,3.819,5.357c1.383.084,2.946-.749,4.651-2.506a1.083,1.083,0,0,1,1.554,1.508C255.478,228.9,253.464,229.963,251.527,229.963Z" style="fill:#4d4d4d"/><path d="M268.308,193.155a44.528,44.528,0,0,1-6.812,15.354c-2.814,4.019-6.787,7.78-11.61,7.98-4.123.172-8.021-2.412-10.384-5.876s-3.4-7.7-3.962-11.887c-1.019-7.618-.487-15.676,2.44-22.82,3.2-7.807,6.325-12.3,14.741-11.982,4.221.158,10.566,1.611,13.342,4.871,1.944,2.284,2.7,5.376,3.089,8.38A44.962,44.962,0,0,1,268.308,193.155Z" style="fill:#4d4d4d"/><path d="M212.833,154.607c1.685,3.289-2.075,6.024-4.554,3.311C206.594,154.629,210.355,151.9,212.833,154.607Z" style="fill:#333;fill-rule:evenodd"/><path d="M303.333,171.146c1.679,3.282-2.069,6.013-4.538,3.306C297.116,171.17,300.864,168.439,303.333,171.146Z" style="fill:#333;fill-rule:evenodd"/><g style="opacity:0.39"><path d="M378.563,124.1c-8.615,6.222-10.71-17.049-25.739-37.34C337.87,66.569,315.58,57.047,324.1,50.855s31.045.453,46.1,20.612C385.32,91.729,387.184,117.871,378.563,124.1Z" style="fill:#fff"/></g><g style="opacity:0.35000000000000003"><path d="M200.275,30.677c4,4.717-7.94,22.108-26.664,38.844S136.467,96,132.468,91.285s5.015-25.469,23.739-42.2S196.276,25.96,200.275,30.677Z" style="fill:#fff"/></g><path d="M373.385,292.422c3.349-.726,6.915-1.974,8.761-4.934,1.518-2.435,1.543-5.569.947-8.395a11.894,11.894,0,0,0-4-7.163,9.929,9.929,0,0,0-8.261-1.4,21.752,21.752,0,0,0-7.671,3.953c.217-1.2,1.357-2.266,1.01-3.435a1.914,1.914,0,0,0-2.593-.946,5.639,5.639,0,0,0-2.193,2.194q-3.072,4.512-6.043,9.1a2.5,2.5,0,0,0-.336.651,2.685,2.685,0,0,0,.59,2.026c2.041,3.365,2.307,9.466,6.359,10.212C363.607,294.952,369.76,293.208,373.385,292.422Z" style="fill:#9dc7c0"/><path d="M352.2,300.707c2.469-1.4,5.034-3.018,5.985-5.845,1.312-3.9-.838-8.571-1.882-13.1a4.891,4.891,0,0,0-6.224-3.68,46.569,46.569,0,0,0-4.359,1.777,114.575,114.575,0,0,1-35.29,9.1C299.705,290,290.252,288.5,289,301.22c-.951,9.687,4.779,18.9,14.823,16.824C321.889,314.31,336.258,309.744,352.2,300.707Z" style="fill:#e3f2ef"/><path d="M361.594,298.633c.993-1.11.863-2.617.614-4.243A37.4,37.4,0,0,0,359.025,284c-.96-2.02-3.079-5.7-4.819-7.065s-3.2-.31-5.237.516a3.517,3.517,0,0,0-1.8,1.493c-.674,1.221-.342,2.748.067,4.087a91.81,91.81,0,0,0,6.194,14.273,6.161,6.161,0,0,0,2.544,3.1c1.738.795,3.555-.243,4.987-1.218A3.4,3.4,0,0,0,361.594,298.633Z" style="fill:#aeddd5"/><path d="M103.767,270.157c-3.142-1.395-6.4-3.346-7.631-6.625-1.016-2.7-.434-5.772.7-8.42a11.725,11.725,0,0,1,5.3-6.2,9.907,9.907,0,0,1,8.368.312,22.058,22.058,0,0,1,6.753,5.44c.019-1.222-.892-2.5-.325-3.573a1.9,1.9,0,0,1,2.725-.4,5.721,5.721,0,0,1,1.723,2.6q2.139,5.049,4.162,10.15a2.543,2.543,0,0,1,.2.707,2.665,2.665,0,0,1-.97,1.865c-2.652,2.881-4.095,8.806-8.21,8.71C112.859,274.632,107.168,271.667,103.767,270.157Z" style="fill:#9dc7c0"/><path d="M124.582,284.035c-2.445-2.06-4.972-4.393-5.522-7.7-.757-4.553,2.386-9.072,4.266-13.627a4.894,4.894,0,0,1,7.138-2.317c1.474.872,2.86,1.907,4.222,2.9a119.024,119.024,0,0,0,32.984,16.936c9.521,3.1,17.84,3.4,17.886,16.11.035,9.884-2.489,19.329-11.353,15.75C157.556,305.361,140.024,297.045,124.582,284.035Z" style="fill:#e3f2ef"/><path d="M114.119,278.651c-.757-1.291-.338-2.74.22-4.284a36.987,36.987,0,0,1,5.133-9.537c1.331-1.784,4.121-4.96,6.091-5.941s3.2.35,5.032,1.575a3.574,3.574,0,0,1,1.471,1.831c.424,1.334-.2,2.763-.857,3.992a90.718,90.718,0,0,1-8.834,12.723,6.065,6.065,0,0,1-3.093,2.515c-1.857.425-3.436-.964-4.651-2.211A3.456,3.456,0,0,1,114.119,278.651Z" style="fill:#aeddd5"/><path d="M163.284,392.086c2.544,3.408,25.436,26.245,29.672,28,26.094,10.829,32.657-3.52,59.685-5.439,9.711-.689,22.037-.59,28.292-7.086,5.364-5.572,7.184-13.27,8.584-20.557a344.66,344.66,0,0,0,5.558-90.647,7.4,7.4,0,0,0-.769-3.249c-1.336-2.333-4.578-3.262-7.4-3.878-27.118-5.928-56.376-8.2-100.771-14.347-13.486-1.868-18.2,37.647-20.116,50.515C163.705,340.986,152.268,377.327,163.284,392.086Z" style="fill:#e3f2ef"/><path d="M286.9,463.218c-4.319.133-8.649.639-12.973.793-6.643.236-13.646-.479-19.151-4.3-10.3-7.16-11.339-20.177-15.437-31.1a330.291,330.291,0,0,1-12.242-38.727,10.5,10.5,0,0,1-.3-5.359c1.1-3.768,5.413-4.819,8.922-5.161,13.832-1.348,47.427-11.847,50.473,8.688,2.262,15.247-9.361,38.784,6.656,48.524,4.383,2.666,9.179,4.534,13.683,6.978s8.838,5.6,11.456,10.088,3.176,10.532.3,14.853-9.581,5.777-13.273,2.173c-1.268-1.238-2.085-2.9-3.34-4.147-2.047-2.042-5.008-2.769-7.845-3.082A49.39,49.39,0,0,0,286.9,463.218Z" style="fill:#e3f2ef"/><path d="M225.571,464.24c4.024,7.821,14.176,13.193,15.7,22.609,2.155,13.335-11.049,14.038-20.788,12.651-23.106-3.291-36.249-27.255-46.119-45.817-10.3-19.371-13.6-35.616-16.46-55.156-.274-1.872.559-20.67,1.12-22.371,1.2-3.628,10.347,3.619,13.6,3.117,13.965-2.153,39.04-13.792,47.366,8.556,4.331,11.625,1.113,13.73-.142,25.941-1.274,12.4-1.789,24.6,1.23,37.41A51.043,51.043,0,0,0,225.571,464.24Z" style="fill:#e3f2ef"/><path d="M211.431,411.076c-4.018-2.877-8.788-4.875-13.54-6.817a111.1,111.1,0,0,0-19-6.371c-6.681-1.41-21.731-2.078-21.759.3,1.524,1.836,5.509,2.517,8.015,3.26a179.8,179.8,0,0,1,40.735,17.668c3.126,1.857,10.467,7.66,13.925,3.521C222.92,418.915,214.349,413.166,211.431,411.076Z" style="fill:#aeddd5"/><path d="M274.527,395.856c-4.518.258-8.889,1.638-13.207,3.051-5.563,1.819-11.17,3.728-16.29,6.7-5.148,2.985-14.983,11.609-13.334,13.427,2.236.465,5.194-1.436,7.274-2.394a140.374,140.374,0,0,1,37.742-11.33c3.248-.49,11.886-.549,11.136-5.781C287.174,394.823,277.809,395.668,274.527,395.856Z" style="fill:#aeddd5"/><path d="M259.815,359.887c-.051.042-.1.083-.158.121a4.7,4.7,0,0,1-3.526.322L189.9,348.96a3.289,3.289,0,0,1-2.565-1.338,3.44,3.44,0,0,1-.146-2.01q1.507-11.63,3.91-23.113c1.4-6.672,3.9-8.409,10.164-7.539q10.633,1.478,21.236,3.171,20.862,3.333,41.587,7.5a2.562,2.562,0,0,1,1.542.7,2.754,2.754,0,0,1,.26,2.213q-2.341,14.014-4.682,28.029A5.325,5.325,0,0,1,259.815,359.887Z" style="fill:#aeddd5;fill-rule:evenodd"/><path d="M257.376,356.077c-.046.033-.093.064-.143.094a4.776,4.776,0,0,1-3.218.192l-60.758-10.434a3.3,3.3,0,0,1-2.371-1.127,2.5,2.5,0,0,1-.169-1.622q1.165-9.339,3.153-18.543c1.155-5.347,3.409-6.7,9.155-5.877q9.749,1.395,19.474,2.963,19.136,3.085,38.16,6.844a2.605,2.605,0,0,1,1.422.594,2.022,2.022,0,0,1,.279,1.788q-1.885,11.244-3.769,22.488A3.859,3.859,0,0,1,257.376,356.077Z" style="fill:#e2f3f0;fill-rule:evenodd"/><path d="M212.414,329.441c-2.177-5.909-12.207-.692-9.162,5.364,2.577,5.126,9.985,1.445,9.532-3.624A6.8,6.8,0,0,0,212.414,329.441Z" style="fill:#9dc7c0"/><path d="M231.366,332.5c-2.176-5.91-12.207-.693-9.162,5.364,2.578,5.126,9.986,1.445,9.533-3.625A6.786,6.786,0,0,0,231.366,332.5Z" style="fill:#aeddd5"/><path d="M249.61,335.508c-2.177-5.91-12.207-.693-9.162,5.364,2.577,5.126,9.985,1.445,9.532-3.625A6.778,6.778,0,0,0,249.61,335.508Z" style="fill:#c4e6e0"/><path d="M302.2,305.964a61.578,61.578,0,0,0,.884-12.095,9.24,9.24,0,0,0-1.066-4.9c-3.255-5.017-7.1,1.733-7.1,5.118,0,2.423.663,4.793.891,7.205.483,5.1-1,10.169-1.279,15.285a2.464,2.464,0,0,0,.338,1.7c.657.815,1.979.441,2.757-.252a9.247,9.247,0,0,0,2.211-3.622A44.341,44.341,0,0,0,302.2,305.964Z" style="fill:#aeddd5"/><path d="M169.056,296.524a104.086,104.086,0,0,1,4.834-13.476c1.313-2.991,7-14.134,9.1-6.129a9.423,9.423,0,0,1-.152,4.752c-.8,2.949-2.521,5.21-3.969,7.62-4.48,7.456-6.362,16.385-9.487,24.145-.267.664-.624,1.4-1.24,1.592-.962.3-1.665-.941-1.831-2.041a17.4,17.4,0,0,1,.264-5.312A99.4,99.4,0,0,1,169.056,296.524Z" style="fill:#aeddd5"/><path d="M186.761,281.248c31.6,14.579,68.735,21.756,106,13.641a14.4,14.4,0,0,0,9.863-7.113c2.785-5.174,4.078-13.975-4.51-12.3-30.351,5.925-69.654,2.12-100.989-9.014a30.847,30.847,0,0,1-5.382-2.5,22.142,22.142,0,0,0-9.325-2.856c-2.627-.1-4.376.623-6.324,4.334C171.352,274.475,180.629,278.418,186.761,281.248Z" style="fill:#aeddd5"/></svg>